<svg width="303" height="49" viewBox="0 0 303 49" fill="none" xmlns="http://www.w3.org/2000/svg">
<g opacity="0.9" filter="url(#filter0_i)">
<path d="M0 4.14115C0 1.85405 1.85406 0 4.14115 0L298.859 0C301.146 0 303 1.85405 303 4.14115C303 6.42824 301.146 8.2823 298.859 8.2823H281.807C267.615 8.2823 254.54 15.981 247.656 28.3911C240.771 40.8013 227.696 48.5 213.504 48.5H86.6086C72.6769 48.5 59.9023 40.7485 53.4689 28.3911C47.0355 16.0338 34.261 8.2823 20.3292 8.2823H3.9704C1.77761 8.2823 0 6.50469 0 4.3119V4.14115Z" fill="#D7ECF9"/>
</g>
<defs>
<filter id="filter0_i" x="0" y="0" width="303" height="48.5" filterUnits="userSpaceOnUse" color-interpolation-filters="sRGB">
<feFlood flood-opacity="0" result="BackgroundImageFix"/>
<feBlend mode="normal" in="SourceGraphic" in2="BackgroundImageFix" result="shape"/>
<feColorMatrix in="SourceAlpha" type="matrix" values="0 0 0 0 0 0 0 0 0 0 0 0 0 0 0 0 0 0 127 0" result="hardAlpha"/>
<feOffset/>
<feGaussianBlur stdDeviation="1.56699"/>
<feComposite in2="hardAlpha" operator="arithmetic" k2="-1" k3="1"/>
<feColorMatrix type="matrix" values="0 0 0 0 0.763524 0 0 0 0 0.809826 0 0 0 0 0.829167 0 0 0 1 0"/>
<feBlend mode="normal" in2="shape" result="effect1_innerShadow"/>
</filter>
</defs>
</svg>
