<svg width="987" height="64" viewBox="0 0 987 64" fill="none" xmlns="http://www.w3.org/2000/svg">
<g opacity="0.9" filter="url(#filter0_i)">
<path d="M0 9C0 4.02944 4.02944 0 9 0L977.5 0C982.471 0 986.5 4.02944 986.5 9C986.5 13.9706 982.471 18 977.5 18H719.101C701.113 18 684.192 26.5346 673.5 41C662.808 55.4654 645.887 64 627.899 64H356.401C338.191 64 321.027 55.492 310 41C298.973 26.508 281.809 18 263.599 18H9C4.02944 18 0 13.9706 0 9Z" fill="#D7ECF9"/>
</g>
<defs>
<filter id="filter0_i" x="0" y="0" width="986.5" height="64" filterUnits="userSpaceOnUse" color-interpolation-filters="sRGB">
<feFlood flood-opacity="0" result="BackgroundImageFix"/>
<feBlend mode="normal" in="SourceGraphic" in2="BackgroundImageFix" result="shape"/>
<feColorMatrix in="SourceAlpha" type="matrix" values="0 0 0 0 0 0 0 0 0 0 0 0 0 0 0 0 0 0 127 0" result="hardAlpha"/>
<feOffset/>
<feGaussianBlur stdDeviation="2.5"/>
<feComposite in2="hardAlpha" operator="arithmetic" k2="-1" k3="1"/>
<feColorMatrix type="matrix" values="0 0 0 0 0.763524 0 0 0 0 0.809826 0 0 0 0 0.829167 0 0 0 1 0"/>
<feBlend mode="normal" in2="shape" result="effect1_innerShadow"/>
</filter>
</defs>
</svg>
