<svg width="1326" height="64" viewBox="0 0 1326 64" fill="none" xmlns="http://www.w3.org/2000/svg">
<g opacity="0.9" filter="url(#filter0_i)">
<path d="M0 9C0 4.02944 4.02944 0 9 0H1317C1321.97 0 1326 4.02944 1326 9C1326 13.9706 1321.97 18 1317 18H888.101C870.113 18 853.192 26.5346 842.5 41C831.808 55.4654 814.887 64 796.899 64H525.401C507.191 64 490.027 55.492 479 41C467.973 26.508 450.809 18 432.599 18H9C4.02944 18 0 13.9706 0 9Z" fill="#D7ECF9"/>
</g>
<defs>
<filter id="filter0_i" x="0" y="0" width="1326" height="64" filterUnits="userSpaceOnUse" color-interpolation-filters="sRGB">
<feFlood flood-opacity="0" result="BackgroundImageFix"/>
<feBlend mode="normal" in="SourceGraphic" in2="BackgroundImageFix" result="shape"/>
<feColorMatrix in="SourceAlpha" type="matrix" values="0 0 0 0 0 0 0 0 0 0 0 0 0 0 0 0 0 0 127 0" result="hardAlpha"/>
<feOffset/>
<feGaussianBlur stdDeviation="2.5"/>
<feComposite in2="hardAlpha" operator="arithmetic" k2="-1" k3="1"/>
<feColorMatrix type="matrix" values="0 0 0 0 0.763524 0 0 0 0 0.809826 0 0 0 0 0.829167 0 0 0 1 0"/>
<feBlend mode="normal" in2="shape" result="effect1_innerShadow"/>
</filter>
</defs>
</svg>
