<svg width="65" height="17" viewBox="0 0 65 17" fill="none" xmlns="http://www.w3.org/2000/svg">
<path fill-rule="evenodd" clip-rule="evenodd" d="M63.6716 13.4079C63.5872 14.6223 63.2759 15.224 62.7324 15.224C62.5266 15.224 62.363 15.121 62.2364 14.9204C62.1098 14.7144 61.9831 14.3404 61.8459 13.7982L60.6165 8.49087L63.851 5.764L63.9776 5.13514H59.9886L59.6826 6.62055H60.8909L57.44 9.46126L59.2815 0.5H54.9284L54.6224 1.98541H56.6275L54.3375 13.0826C54.2689 13.1043 54.195 13.1152 54.1053 13.1152C54.0103 13.1152 53.9206 13.0555 53.8362 12.9363C53.7518 12.817 53.7096 12.6218 53.7096 12.3508C53.7096 12.1393 53.7359 11.9171 53.7834 11.684L55.1711 5.13514H52.7862L52.5329 6.36033C52.2532 5.91579 51.8892 5.56883 51.4301 5.31946C50.9711 5.07008 50.4487 4.95081 49.8577 4.95081C48.8446 4.95081 47.9265 5.23814 47.1034 5.80195C46.6707 6.10011 46.2855 6.45791 45.9478 6.85908H42.0749L42.8874 2.96123H40.4128L39.6529 6.85908H38.376C38.3233 6.11638 38.1491 5.24356 37.669 4.6147C37.0411 3.7961 35.9066 3.35156 34.4345 3.35156C33.3633 3.35156 32.3977 3.55756 31.5377 3.975C30.6776 4.38701 30.0022 4.95081 29.5168 5.66099C29.0313 6.37117 28.7833 7.15183 28.7833 8.00838C28.7833 8.58845 28.9416 9.06009 29.2635 9.41789C29.5801 9.77569 29.9653 10.0413 30.4191 10.2148C30.8728 10.3883 31.4691 10.5672 32.2131 10.7515C32.8621 10.8979 33.3792 11.0443 33.7644 11.1852C34.1496 11.3262 34.4714 11.5267 34.73 11.787C34.9885 12.0472 35.1204 12.3887 35.1204 12.8062C35.1204 13.4025 34.9041 13.95 34.482 14.4596C34.0546 14.9692 33.2631 15.2186 32.1075 15.2186C30.1341 15.2186 29.1474 14.3404 29.1474 12.5839C29.1474 12.2369 29.1949 11.8195 29.2899 11.3207H27.8441C27.7597 11.8574 27.7228 12.3237 27.7175 12.7303C27.612 12.9742 27.4167 13.0989 27.1212 13.0989C27.0263 13.0989 26.9366 13.0393 26.8521 12.92C26.7677 12.8007 26.7255 12.6056 26.7255 12.3345C26.7255 12.1231 26.7519 11.9008 26.7994 11.6677L28.2029 5.12971H25.8179L25.5647 6.35491C25.285 5.91037 24.9209 5.56341 24.4619 5.31404C24.0028 5.06466 23.4805 4.94539 22.8895 4.94539C21.8764 4.94539 20.9583 5.23272 20.1351 5.79652C19.312 6.36575 18.663 7.12472 18.1934 8.06801C17.7238 9.01672 17.4916 10.0196 17.4916 11.0822C17.4916 11.2828 17.5074 11.4725 17.5233 11.6569H15.629C15.6026 12.0797 15.5393 12.4267 15.4391 12.6977C15.3388 12.9688 15.1277 13.1043 14.8164 13.1043C14.7215 13.1043 14.6318 13.0447 14.5473 12.9254C14.4629 12.8062 14.4207 12.611 14.4207 12.3399C14.4207 12.1285 14.4471 11.9062 14.4946 11.6731L14.8903 9.76485C15.0697 8.88661 15.1594 8.13849 15.1594 7.52047C15.1594 6.64223 14.98 5.99169 14.6159 5.57425C14.2571 5.1514 13.7031 4.94539 12.9538 4.94539C12.2943 4.94539 11.6664 5.14598 11.0754 5.54173C10.4844 5.93748 9.97787 6.49586 9.56103 7.21146C9.51354 6.44707 9.31303 5.87784 8.95423 5.50378C8.60071 5.13514 8.07305 4.94539 7.37656 4.94539C6.81197 4.94539 6.26849 5.09177 5.75139 5.38993C5.23429 5.6881 4.76469 6.10553 4.34257 6.65308L4.6486 5.12971H0.306037L0 6.61513H2.00507L0 16.7148H2.34805L3.66717 9.95459C3.80964 9.26068 4.0207 8.64808 4.2898 8.10596C4.5589 7.56926 4.86494 7.15183 5.20263 6.8645C5.54033 6.57176 5.87803 6.43081 6.21572 6.43081C6.86473 6.43081 7.19188 6.92414 7.19188 7.91622C7.19188 8.34991 7.11273 8.96793 6.95971 9.77027L5.99411 14.4054H8.34216L9.26554 9.95459C9.40801 9.26068 9.61907 8.64808 9.88817 8.10596C10.1573 7.56926 10.4633 7.15183 10.801 6.8645C11.1387 6.57176 11.4764 6.43081 11.8141 6.43081C12.4631 6.43081 12.7903 6.92414 12.7903 7.91622C12.7903 8.34991 12.7111 8.96793 12.5581 9.77027L12.2309 11.3099C12.1201 11.8303 12.0674 12.2749 12.0674 12.6435C12.0674 13.3754 12.252 13.8796 12.6267 14.1669C13.0013 14.4488 13.5342 14.5951 14.236 14.5951C14.9483 14.5951 15.4918 14.4813 15.8717 14.2536C16.2516 14.0259 16.5102 13.7061 16.6579 13.2886C16.6668 13.2643 16.6741 13.2381 16.6815 13.2113C16.6873 13.1904 16.6932 13.169 16.7001 13.1477H18.0193C18.1354 13.332 18.2673 13.5055 18.4203 13.6573C19.0271 14.2807 19.8555 14.5951 20.9055 14.5951C21.5545 14.5951 22.1824 14.4488 22.784 14.1506C23.3855 13.8524 23.929 13.4459 24.4091 12.9254C24.4566 13.5543 24.6624 13.9934 25.0212 14.2319C25.38 14.4705 25.8918 14.5951 26.5567 14.5951C27.1371 14.5951 27.6067 14.5193 27.9655 14.3675C28.1027 14.7957 28.2873 15.1264 28.4773 15.4354C28.968 16.2324 30.361 16.7148 31.9967 16.7148C33.1417 16.7148 34.1548 16.5088 35.0466 16.0914C35.9383 15.6794 36.6348 15.0885 37.1308 14.3295C37.632 13.5705 37.88 12.6923 37.88 11.7056C37.88 11.0388 37.7059 10.5076 37.3577 10.1172C37.0094 9.7269 36.5873 9.445 36.0913 9.2661C35.5953 9.0872 34.9621 8.91914 34.1759 8.75651C33.5639 8.62098 33.0837 8.49629 32.7407 8.37702C32.3978 8.25775 32.1075 8.09512 31.8754 7.88369C31.6432 7.67226 31.5218 7.39578 31.5218 7.04882C31.5218 6.75066 31.6063 6.43623 31.7751 6.09469C31.944 5.75315 32.2395 5.46041 32.6616 5.21103C33.0837 4.96166 33.6483 4.84239 34.3606 4.84239C35.2365 4.84239 35.9066 5.05924 36.3551 5.49294C36.8089 5.92663 37.0305 6.53381 37.0305 7.30904C37.0305 7.64516 36.9936 7.97585 36.9197 8.34449H39.3733L38.3285 13.4079C38.2441 13.7928 38.2019 14.1452 38.2019 14.465C38.2019 15.1427 38.3866 15.6252 38.7612 15.9017C39.1358 16.1781 39.6582 16.3191 40.3336 16.3191C41.0934 16.3191 41.6738 16.1944 42.0749 15.9505C42.4759 15.7011 42.7555 15.3595 42.9138 14.9204C43.0721 14.4813 43.1618 13.9067 43.1829 13.2019H41.9166C41.8585 14.2916 41.5789 14.8337 41.0882 14.8337C40.9668 14.8337 40.8665 14.7741 40.7821 14.6548C40.6977 14.5355 40.6555 14.3512 40.6555 14.091C40.6555 13.9446 40.6871 13.7115 40.7452 13.4025L41.7899 8.33907H45.0561C44.6709 9.20647 44.4757 10.1227 44.4757 11.0822C44.4757 12.1719 44.7817 13.0284 45.3885 13.6519C45.9953 14.2753 46.8237 14.5897 47.8737 14.5897C48.5228 14.5897 49.1507 14.4434 49.7522 14.1452C50.3537 13.847 50.8972 13.4404 51.3773 12.92C51.4248 13.5489 51.6306 13.988 51.9894 14.2265C52.3482 14.465 52.86 14.5897 53.5249 14.5897C54.0473 14.5897 54.4747 14.5247 54.8176 14.4054H56.4217L57.0179 11.5322L58.6431 10.1606L59.5084 13.7982C59.6984 14.6494 59.8672 15.2565 60.015 15.6143C60.1574 15.9721 60.3843 16.2432 60.6904 16.4329C60.9964 16.6173 61.466 16.7094 62.0886 16.7094C63.049 16.7094 63.7508 16.4384 64.194 15.8908C64.6319 15.3487 64.8852 14.5193 64.9432 13.4025H63.6716V13.4079ZM24.8999 9.58054L24.8102 10.0251C24.5938 10.8925 24.2139 11.619 23.6652 12.2154C23.1164 12.8117 22.4832 13.1045 21.7603 13.1045C21.2168 13.1045 20.7947 12.9147 20.4939 12.5298C20.1932 12.1449 20.0402 11.6136 20.0402 10.9359C20.0402 10.2311 20.1721 9.53174 20.4359 8.83237C20.6997 8.13301 21.0691 7.55833 21.5387 7.10835C22.0083 6.65837 22.5413 6.43066 23.1481 6.43066C23.7285 6.43066 24.1717 6.63126 24.4936 7.03245C24.8102 7.43364 24.9738 7.98663 24.9738 8.69142C24.9685 9.02755 24.9474 9.32031 24.8999 9.58054ZM51.7837 10.0251L51.8734 9.58054C51.9209 9.32031 51.9473 9.02755 51.9473 8.69142C51.9473 7.98663 51.7837 7.43364 51.4671 7.03245C51.1452 6.63126 50.702 6.43066 50.1216 6.43066C49.5148 6.43066 48.9818 6.65837 48.5122 7.10835C48.0426 7.55833 47.6732 8.13301 47.4094 8.83237C47.1456 9.53174 47.0137 10.2311 47.0137 10.9359C47.0137 11.6136 47.1667 12.1449 47.4675 12.5298C47.7682 12.9147 48.1903 13.1045 48.7338 13.1045C49.4567 13.1045 50.0899 12.8117 50.6387 12.2154C51.1874 11.619 51.5674 10.8925 51.7837 10.0251Z" fill="white"/>
<path d="M48.6283 4.06155C48.6125 4.07239 48.507 3.88807 48.507 3.88265C49.2087 3.93686 51.5884 1.20992 51.5884 1.20992C51.7889 1.03101 51.9842 0.928005 52.1688 0.890056C52.3535 0.852106 52.5224 0.884635 52.6596 0.976798C52.802 1.06896 52.9023 1.22618 52.9709 1.43761C53.0658 1.80084 52.9445 2.35924 52.707 2.61947C51.8997 3.50315 50.6492 3.96397 48.6283 4.06155Z" fill="white"/>
</svg>
