<svg width="29" height="34" viewBox="0 0 29 34" fill="none" xmlns="http://www.w3.org/2000/svg">
<g clip-path="url(#clip0)">
<path d="M2.07151 0H19.6713L29 9.2923V31.0715C29 32.216 28.072 33.143 26.9285 33.143H2.07151C0.928051 33.143 0 32.216 0 31.0715V2.07151C0 0.92698 0.928051 0 2.07151 0Z" fill="#E2574C"/>
<path d="M28.9699 9.32126H21.7502C20.6068 9.32126 19.6787 8.39321 19.6787 7.24976V0.0203857L28.9699 9.32126Z" fill="#B53629"/>
<path d="M21.2309 15.704C21.5781 15.704 21.7474 15.4018 21.7474 15.1081C21.7474 14.8049 21.5706 14.5112 21.2309 14.5112H19.2548C18.869 14.5112 18.6525 14.8317 18.6525 15.1842V20.041C18.6525 20.4739 18.899 20.714 19.2323 20.714C19.5634 20.714 19.811 20.4739 19.811 20.041V18.7078H21.0059C21.3766 18.7078 21.562 18.4045 21.562 18.1034C21.562 17.8087 21.3766 17.5151 21.0059 17.5151H19.811V15.704C19.812 15.704 21.2309 15.704 21.2309 15.704ZM14.5513 14.5123H13.1056C12.7134 14.5123 12.4348 14.7813 12.4348 15.181V20.0463C12.4348 20.5425 12.8356 20.6979 13.1228 20.6979H14.6402C16.4363 20.6979 17.6216 19.5158 17.6216 17.6919C17.6194 15.764 16.5038 14.5123 14.5513 14.5123ZM14.6209 19.4987H13.739V15.7126H14.5331C15.7355 15.7126 16.2584 16.5195 16.2584 17.633C16.2595 18.6735 15.7451 19.4987 14.6209 19.4987ZM9.32377 14.5123H7.89097C7.48588 14.5123 7.25977 14.7791 7.25977 15.1853V20.042C7.25977 20.475 7.51911 20.715 7.86632 20.715C8.21354 20.715 8.47288 20.475 8.47288 20.042V18.6242H9.37092C10.479 18.6242 11.3942 17.8387 11.3942 16.5763C11.3953 15.3407 10.5133 14.5123 9.32377 14.5123ZM9.30019 17.4851H8.47502V15.6525H9.30019C9.80923 15.6525 10.1339 16.0501 10.1339 16.5688C10.1329 17.0875 9.80923 17.4851 9.30019 17.4851Z" fill="white"/>
</g>
<defs>
<clipPath id="clip0">
<rect width="29" height="33.143" fill="white"/>
</clipPath>
</defs>
</svg>
