<?xml version="1.0" encoding="utf-8"?>
<!-- Generator: Adobe Illustrator 24.0.3, SVG Export Plug-In . SVG Version: 6.00 Build 0)  -->
<svg version="1.1" id="Capa_1" xmlns="http://www.w3.org/2000/svg" xmlns:xlink="http://www.w3.org/1999/xlink" x="0px" y="0px"
	 viewBox="0 0 512 512" style="enable-background:new 0 0 512 512;" xml:space="preserve">
<style type="text/css">
	.st0{fill:#4086F4;}
	.st1{fill:#4175DF;}
	.st2{fill:#80AEF8;}
	.st3{fill:#FFF5F5;}
	.st4{fill:#E3E7EA;}
</style>
<g>
	<g id="Docs_3_">
		<g>
			<g>
				<g>
					<g>
						<path class="st0" d="M451,135l-105-30L316,0H106C81.1,0,61,20.1,61,45v422c0,24.9,20.1,45,45,45h300c24.9,0,45-20.1,45-45V135
							z"/>
					</g>
				</g>
			</g>
		</g>
		<path class="st1" d="M451,135v332c0,24.9-20.1,45-45,45H256V0h60l30,105L451,135z"/>
		<path class="st2" d="M451,135H346c-16.5,0-30-13.5-30-30V0c3.9,0,7.8,1.5,10.5,4.5l120,120C449.5,127.2,451,131.1,451,135z"/>
		<g>
			<path class="st3" d="M346,384.5H166.4c-7.7,0-14.5-5.7-15.3-13.3c-1-9,6.1-16.7,14.9-16.7h179.6c7.7,0,14.5,5.7,15.3,13.3
				C361.9,376.9,354.8,384.5,346,384.5z"/>
		</g>
		<g>
			<path class="st3" d="M286,439.5H166.4c-7.7,0-14.5-5.7-15.3-13.3c-1-9,6.1-16.7,14.9-16.7h119.6c7.7,0,14.5,5.7,15.3,13.3
				C301.9,431.9,294.8,439.5,286,439.5z"/>
		</g>
	</g>
	<g id="Docs_4_">
		<g>
			<g>
				<path class="st4" d="M256,439.5h29.6c7.7,0,14.5-5.7,15.3-13.3c1-9-6.1-16.7-14.9-16.7h-30V439.5z"/>
			</g>
			<g>
				<path class="st3" d="M286,195.5l-119.6,0c-7.7,0-14.5-5.7-15.3-13.3c-1-9,6.1-16.7,14.9-16.7h119.6c7.7,0,14.5,5.7,15.3,13.3
					C301.9,187.9,294.8,195.5,286,195.5z"/>
			</g>
			<g>
				<path class="st3" d="M201.4,261.6h-35c-7.7,0-14.5-5.7-15.3-13.3c-1-9,6.1-16.7,14.9-16.7l35,0c7.7,0,14.5,5.7,15.3,13.3
					C217.3,253.9,210.2,261.6,201.4,261.6z"/>
			</g>
			<g>
				<path class="st3" d="M201.4,316.7h-35c-7.7,0-14.5-5.7-15.3-13.3c-1-9,6.1-16.7,14.9-16.7h35c7.7,0,14.5,5.7,15.3,13.3
					C217.3,309.1,210.2,316.7,201.4,316.7z"/>
			</g>
			<g>
				<path class="st4" d="M256,195.5h87.6c7.7,0,14.5-5.7,15.3-13.3c1-9-6.1-16.7-14.9-16.7h-88V195.5z"/>
			</g>
			<g>
				<path class="st4" d="M256,384.5h89.6c7.7,0,14.5-5.7,15.3-13.3c1-9-6.1-16.7-14.9-16.7h-90V384.5z"/>
			</g>
		</g>
	</g>
</g>
<g>
	<path class="st3" d="M245.4,226c-8.7,0-15.8,7.1-15.8,15.8v64.7c0,8.7,7.1,15.8,15.8,15.8H256V226H245.4z"/>
	<path class="st4" d="M361,306.5v-64.7c0-8.7-7.1-15.8-15.8-15.8H256v96.3h89.2C353.9,322.3,361,315.2,361,306.5z"/>
</g>
</svg>
