<svg width="107" height="32" viewBox="0 0 107 32" fill="none" xmlns="http://www.w3.org/2000/svg">
<path d="M14.3014 4.89212V8.73888C14.5775 8.41256 14.9164 7.81013 14.9164 6.81864C14.9226 5.84597 14.5838 5.23099 14.3014 4.89212ZM13.1028 15.4785C13.1405 15.0455 13.153 14.2486 12.8392 13.5269C12.5192 12.8053 11.9607 12.3848 11.6469 12.1966C11.5779 12.5543 11.5089 13.2508 11.8352 13.9725C12.1552 14.6941 12.7577 15.2213 13.1028 15.4785ZM13.8872 8.84556V4.78544C13.5923 5.09921 13.1781 5.73301 13.1781 6.81864C13.1781 7.92936 13.5986 8.55062 13.8872 8.84556ZM16.3346 14.1294C16.6483 13.4014 16.573 12.7049 16.504 12.3534C16.1903 12.548 15.638 12.9747 15.3243 13.6964C15.0105 14.418 15.0356 15.215 15.0858 15.648C15.4309 15.3844 16.0271 14.851 16.3346 14.1294ZM26.0236 1.87371C24.1599 0.342537 20.652 0.110352 14.0065 0.110352C7.39857 0.110352 3.90323 0.348813 2.03947 1.88626C0.169433 3.43626 0 6.24759 0 11.3431C0 16.4763 0.163158 19.3002 2.02692 20.8565C3.89068 22.4002 7.38602 22.6261 14.0065 22.6261C20.652 22.6261 24.1599 22.4002 26.0236 20.8565C27.8937 19.3002 28.0568 16.4763 28.0631 11.3431C28.0568 6.23504 27.8937 3.42371 26.0236 1.87371ZM18.4933 3.48018C18.7757 3.05974 19.2965 2.97816 19.2965 2.97816C19.2965 2.97816 20.1437 2.50124 20.9595 3.14132C21.8819 3.8567 21.2858 5.18706 21.2858 5.18706C21.2858 5.18706 21.0975 6.34799 21.0411 6.50487C20.9846 6.66176 20.6269 6.80609 20.6269 6.80609C20.6269 6.80609 20.4261 6.85629 20.2002 6.86257C19.9743 6.86884 19.7232 6.78726 19.6417 6.74961C19.5413 6.69313 19.5287 6.4986 19.5287 6.4986C19.5287 6.4986 19.4973 6.32289 19.4471 6.26641C19.3907 6.19738 18.8886 6.17228 18.556 5.58868C18.3239 5.18706 18.4619 4.64739 18.5121 4.3148C18.5623 3.98221 18.4933 3.48018 18.4933 3.48018ZM6.48865 3.09739C7.42367 2.6644 8.52812 3.07229 8.95484 4.00103C9.23095 4.60974 9.118 4.84192 8.72266 5.03018C8.78541 5.17451 8.81679 5.33767 8.81679 5.5071C8.81679 6.18483 8.27083 6.73078 7.59938 6.73078C7.09108 6.73078 6.65808 6.42329 6.46983 5.98402C6.08703 6.10953 5.80464 6.05933 5.58501 5.5573C5.16456 4.62229 5.55991 3.53039 6.48865 3.09739ZM26.168 18.3652H18.6627L18.6125 18.5409C18.6125 18.5409 18.1795 19.865 17.3575 19.6516C16.5919 19.4508 16.9119 18.384 16.9119 18.384L16.9182 18.3652H14.3077V19.821H13.8935V18.3652H11.5089L11.5905 18.7229C11.5905 18.7229 11.7411 19.388 11.1512 19.6265C10.5362 19.8775 10.1848 19.0304 10.1848 19.0304C10.1848 19.0304 10.0467 18.7417 9.88358 18.3589H1.85121V17.9385H9.70788C9.64512 17.7878 9.58865 17.631 9.53844 17.4804C9.28743 16.765 8.96112 15.5162 8.89836 15.4785C8.82934 15.4346 8.33986 15.4346 7.77509 15.3656C7.21031 15.2966 6.83379 15.1146 6.76476 15.1334C6.60161 15.1711 5.4093 16.721 4.63117 16.8779C3.84675 17.0348 3.03097 16.0308 3.03097 16.0308L2.06457 14.7757C2.06457 14.7757 1.69433 14.28 1.97044 14.0038C2.30931 13.665 2.6419 13.916 2.6419 13.916C2.6419 13.916 3.94716 14.7632 4.08522 14.851C4.1919 14.9138 4.22327 14.8636 4.22327 14.8636C4.22327 14.8636 4.43663 14.6565 4.53704 14.531C4.61234 14.4368 4.54959 14.3866 4.54959 14.3866C4.54959 14.3866 3.90951 13.7466 3.65222 13.4893C3.43886 13.2696 3.63967 12.9496 3.63967 12.9496L5.54736 9.14677L3.04352 9.6739C3.04352 9.6739 2.56659 9.79313 2.45991 9.46681C2.34696 9.14677 2.82388 8.88321 2.82388 8.88321L6.12469 6.94414C6.12469 6.94414 6.26902 6.84374 6.33805 6.83746C6.40707 6.83119 6.53258 6.90022 6.53258 6.90022C6.53258 6.90022 6.99068 7.25791 7.62448 7.23908C8.26456 7.22026 8.61598 6.83746 8.61598 6.83746C8.61598 6.83746 8.70383 6.74961 8.82306 6.73078C8.94229 6.71196 9.22468 7.01317 9.22468 7.01317L12.1552 10.2638C12.1552 10.2638 12.469 10.6152 12.2305 10.9164C12.0172 11.1862 11.5591 10.8976 11.5591 10.8976C11.5591 10.8976 9.71415 9.78685 9.63885 9.76803C9.56982 9.7492 9.58865 9.84333 9.58865 9.84333L11.4085 17.9385H13.8809V9.42916C13.699 9.30993 12.7263 8.58199 12.7263 6.81864C12.7263 4.9235 13.8747 4.18929 13.9249 4.15791C13.9939 4.11399 14.088 4.11399 14.1633 4.15791C14.2135 4.18929 15.3556 4.9235 15.3556 6.81864C15.3556 8.36863 14.6026 9.11539 14.2951 9.36013V17.9447H16.9935L18.0917 12.686C18.0917 12.686 18.7192 9.71782 18.6815 9.699C18.6439 9.6739 16.435 11.1109 16.435 11.1109C16.435 11.1109 16.1275 11.3996 15.8075 11.0984C15.4874 10.7909 15.9518 10.3767 15.9518 10.3767L18.7443 7.12613C18.7443 7.12613 18.8447 7.0069 18.9639 7.01317C19.1271 7.02572 19.1459 7.13868 19.1459 7.13868C19.1459 7.13868 19.4534 7.92936 19.4973 7.92936C19.5413 7.92936 19.9617 7.49009 19.9617 7.49009C19.9617 7.49009 20.1751 7.27673 20.288 7.26418C20.401 7.25163 20.4637 7.35204 20.4637 7.35204L20.9156 8.00467C20.9156 8.00467 21.0285 8.15528 21.0536 8.149C21.085 8.14272 21.1164 8.0737 21.1164 8.0737L21.6435 7.08848C21.6435 7.08848 21.7564 6.85629 21.8631 6.77471C21.9698 6.69313 22.1957 6.84374 22.1957 6.84374L25.371 8.75143C25.371 8.75143 25.8103 8.95224 25.6848 9.37268C25.5467 9.85588 24.8062 9.60487 24.8062 9.60487C24.8062 9.60487 22.6224 9.15305 22.5911 9.17815C22.5597 9.20952 22.6224 9.28483 22.6224 9.28483C22.6224 9.28483 24.3419 13.1818 24.323 13.414C24.3105 13.6022 24.0971 13.7403 24.0971 13.7403C24.0971 13.7403 23.5072 14.098 23.5072 14.167C23.4947 14.2298 23.5512 14.2862 23.5512 14.2862C23.5512 14.2862 23.8587 14.6063 23.9402 14.6251C24.0344 14.6439 24.185 14.5435 24.185 14.5435L25.1765 14.0101C25.1765 14.0101 25.6534 13.6273 26.0174 13.9913C26.3813 14.349 25.8793 14.7883 25.8793 14.7883L24.9004 15.899C24.9004 15.899 24.3356 16.7524 23.7583 16.8089C23.1496 16.8717 22.6036 16.3445 22.6036 16.3445C22.6036 16.3445 20.8842 14.6565 20.8465 14.6188C20.8089 14.5812 20.7712 14.6439 20.7712 14.6439C20.7712 14.6439 20.5892 15.1334 20.5077 15.2024C20.4261 15.2777 20.2817 15.3091 20.2817 15.3091C20.2817 15.3091 19.5664 15.4095 19.5287 15.4346C19.4911 15.4597 19.466 15.604 19.466 15.604L18.7757 17.9573H26.168V18.3652ZM13.222 13.3575C13.7366 14.5247 13.4856 15.8362 13.4731 15.8927C13.4605 15.9617 13.4103 16.0182 13.3538 16.0433C13.2911 16.0684 13.2158 16.0684 13.1593 16.0308C13.1154 16.0057 11.967 15.3154 11.4461 14.1482C10.9253 12.9684 11.2893 11.864 11.3081 11.8138C11.3269 11.7573 11.3708 11.7134 11.421 11.6883C11.4775 11.6632 11.534 11.6632 11.5842 11.6883C11.6344 11.7071 12.6949 12.1777 13.222 13.3575ZM16.5542 11.8389C16.6107 11.8138 16.6672 11.8138 16.7237 11.8389C16.7739 11.864 16.8178 11.9079 16.8366 11.9644C16.8492 12.0083 17.2257 13.1065 16.7174 14.2925C16.2154 15.466 15.0795 16.1688 15.0293 16.2002C14.9728 16.2379 14.8975 16.2441 14.8411 16.2127C14.7783 16.1876 14.7281 16.1312 14.7156 16.0621C14.703 16.0057 14.4332 14.7004 14.9352 13.5269C15.4498 12.3409 16.5103 11.8577 16.5542 11.8389Z" fill="white"/>
<path d="M31.8158 7.54665H32.4747C32.9579 6.27904 33.3721 4.96123 33.4285 1.33411H38.5429V7.54665H39.1202V10.4584H37.7585V8.84563H33.1775V10.4584H31.8158V7.54665ZM36.9741 2.62682H34.8091C34.7966 3.45516 34.7589 5.68288 34.0435 7.54665H36.9741V2.62682Z" fill="white"/>
<path d="M40.0991 1.32788H45.6151V2.62687H41.6115V4.28982H45.2951V5.5888H41.6115V7.48394H45.7971V8.83941H40.0991V1.32788Z" fill="white"/>
<path d="M46.3494 1.32788H52.5054V2.62687H50.2087V8.83941H48.6398V2.62687H46.3494V1.32788Z" fill="white"/>
<path d="M58.2159 3.80031C58.0904 3.36104 57.8519 2.50133 56.4964 2.50133C55.9191 2.50133 54.6515 2.84647 54.6515 5.08675C54.6515 6.70577 55.3543 7.67217 56.4964 7.67217C57.8143 7.67217 58.0841 6.74342 58.2222 6.27278H59.7784C59.4458 8.14909 58.1469 9.0339 56.5529 9.0339C54.3252 9.0339 53.0764 7.48391 53.0764 5.08675C53.0764 2.31307 54.7707 1.13959 56.4902 1.13959C58.9375 1.13959 59.7031 2.81509 59.7784 3.80031H58.2159V3.80031Z" fill="white"/>
<path d="M61.0963 1.32788H62.6651V4.38395L65.5329 1.32788H67.5661L64.4975 4.40277L67.7418 8.83941H65.7526L63.4307 5.5135L62.6651 6.29791V8.83941H61.0963V1.32788Z" fill="white"/>
<path d="M68.4761 1.32788H69.9821V6.44224H70.001L72.9755 1.32788H74.5694V8.83941H73.057V3.75642H73.0382L70.0637 8.83941H68.4761V1.32788Z" fill="white"/>
<path d="M76.1569 1.32788H81.6728V2.62687H77.6629V4.28982H81.3465V5.5888H77.6629V7.48394H81.8485V8.83941H76.1569V1.32788Z" fill="white"/>
<path d="M31.3387 18.9802H32.0039C32.4871 17.7126 32.9013 16.3948 32.9578 12.7677H38.0721V18.9802H38.6495V21.892H37.2877V20.2792H32.7068V21.892H31.345V18.9802H31.3387ZM36.5033 14.0604H34.3383C34.3258 14.8887 34.2881 17.1165 33.5727 18.9802H36.5033V14.0604Z" fill="white"/>
<path d="M39.6285 12.7677H45.1445V14.0604H41.1346V15.7234H44.8182V17.0223H41.1346V18.9175H45.3202V20.2792H39.6285V12.7677Z" fill="white"/>
<path d="M46.6129 12.7614H50.0267C51.6143 12.7614 52.3799 13.6588 52.3799 15.1711C52.3799 16.5768 51.4449 17.5808 49.9012 17.5808H48.188V20.2792H46.6192V12.7614H46.6129ZM48.1817 16.2819H49.669C50.3781 16.2819 50.8111 15.9555 50.8111 15.1711C50.8111 14.3867 50.3844 14.0604 49.669 14.0604H48.1817V16.2819Z" fill="white"/>
<path d="M53.5911 12.7677H59.107V14.0604H55.0971V15.7234H58.7807V17.0223H55.0971V18.9175H59.2828V20.2792H53.5911V12.7677Z" fill="white"/>
<path d="M60.5754 12.7677H64.259C66.0977 12.7677 66.5746 13.8973 66.5746 14.6942C66.5746 15.4472 66.3111 15.8991 65.6522 16.2317C66.6562 16.6082 66.8131 17.3926 66.8131 18.0327C66.8131 19.4885 65.7149 20.2792 64.0206 20.2792H60.5754V12.7677ZM62.0815 15.7234H64.0143C64.5603 15.7234 65.0623 15.4849 65.0623 14.8636C65.0623 14.2236 64.6105 14.0604 64.0582 14.0604H62.0815V15.7234ZM62.0815 18.9802H64.0394C64.7297 18.9802 65.2443 18.6539 65.2443 17.9636C65.2443 17.0914 64.6167 16.9596 64.0017 16.9596H62.0878V18.9802H62.0815Z" fill="white"/>
<path d="M68.0054 12.7677H69.5742V15.623H72.5236V12.7677H74.0924V20.2792H72.5236V16.9219H69.5742V20.2792H68.0054V12.7677Z" fill="white"/>
<path d="M75.5608 12.7677H77.0669V17.8821H77.0857L80.0602 12.7677H81.6478V20.2792H80.1418V15.19H80.1229L77.1484 20.2792H75.5608V12.7677Z" fill="white"/>
<path d="M91.6382 15.0142H90.1321C90.1321 14.211 89.4606 13.8721 88.6072 13.8721C87.9797 13.8721 87.2706 14.1106 87.2706 14.7946C87.2706 15.3908 87.7537 15.4849 88.0863 15.5602L89.9187 16.012C90.6906 16.2003 91.8892 16.5329 91.8892 18.0829C91.8892 19.2877 91.0608 20.4675 88.7515 20.4675C87.1388 20.4675 85.708 19.7584 85.708 17.9636H87.2141C87.2141 18.861 88.0173 19.1685 88.8331 19.1685C89.4795 19.1685 90.3831 18.9802 90.3831 18.2084C90.3831 17.6122 89.7681 17.4553 89.0214 17.2859L88.2181 17.0976C87.0133 16.8152 85.8335 16.5454 85.8335 14.9138C85.8335 13.2195 87.2455 12.5794 88.7452 12.5794C89.7179 12.5731 91.6382 12.9559 91.6382 15.0142Z" fill="white"/>
<path d="M96.3446 12.5731C98.5723 12.5731 99.9529 14.28 99.9529 16.5203C99.9529 18.7606 98.5723 20.4674 96.3446 20.4674C93.9286 20.4674 92.7363 18.7606 92.7363 16.5203C92.7363 14.28 93.9286 12.5731 96.3446 12.5731ZM98.3841 16.5203C98.3841 15.0268 97.6185 13.9349 96.3446 13.9349C95.0645 13.9349 94.3052 15.0268 94.3052 16.5203C94.3052 18.0201 95.0707 19.1057 96.3446 19.1057C97.6185 19.1057 98.3841 18.0201 98.3841 16.5203Z" fill="white"/>
<path d="M106.761 15.0142H105.255C105.255 14.211 104.584 13.8721 103.724 13.8721C103.097 13.8721 102.388 14.1106 102.388 14.7946C102.388 15.3908 102.871 15.4849 103.203 15.5602L105.036 16.012C105.808 16.2003 107 16.5329 107 18.0829C107 19.2877 106.172 20.4675 103.862 20.4675C102.249 20.4675 100.819 19.7584 100.819 17.9636H102.325C102.325 18.861 103.134 19.1685 103.944 19.1685C104.596 19.1685 105.494 18.9802 105.494 18.2084C105.494 17.6122 104.879 17.4553 104.132 17.2859L103.329 17.0976C102.124 16.8152 100.944 16.5454 100.944 14.9138C100.944 13.2195 102.356 12.5794 103.856 12.5794C104.841 12.5731 106.761 12.9559 106.761 15.0142Z" fill="white"/>
<path d="M31.2886 24.1824H36.9112V25.4438H32.8072V27.1883H34.8404C35.3989 27.1883 35.8695 27.2573 36.2335 27.3954C36.5975 27.5334 36.9175 27.7845 37.1811 28.1547C37.4446 28.5249 37.5764 28.9579 37.5764 29.4537C37.5764 29.962 37.4446 30.4012 37.1811 30.7652C36.9175 31.1292 36.6163 31.3739 36.2774 31.512C35.9386 31.6438 35.4616 31.7128 34.8404 31.7128H31.2886V24.1824ZM32.8072 30.4452H34.2882C34.7588 30.4452 35.0914 30.4201 35.2859 30.3761C35.4805 30.3322 35.6436 30.2255 35.788 30.0624C35.9323 29.8992 36.0013 29.6984 36.0013 29.4537C36.0013 29.1023 35.8758 28.8513 35.6311 28.6944C35.3801 28.5375 34.9596 28.4559 34.3635 28.4559H32.8197V30.4452H32.8072Z" fill="#A1DAF8"/>
<path d="M38.8129 31.7065V24.1824H44.3916V25.4563H40.3315V27.1255H44.1092V28.3932H40.3315V30.4389H44.5359V31.7065H38.8129Z" fill="#A1DAF8"/>
<path d="M46.3619 24.1824H51.6331V31.7065H50.1145V25.4563H47.8491V28.6693C47.8491 29.5917 47.8177 30.2318 47.755 30.5958C47.6922 30.9597 47.5416 31.2421 47.3032 31.4492C47.0647 31.6563 46.6945 31.7567 46.1862 31.7567C46.0105 31.7567 45.6841 31.7379 45.2135 31.7065V30.533L45.5524 30.5393C45.8724 30.5393 46.0858 30.4954 46.1924 30.4138C46.2991 30.3259 46.3556 30.1189 46.3556 29.78L46.3493 28.4873V24.1824H46.3619Z" fill="#A1DAF8"/>
<path d="M59.9856 31.7065H58.3352L57.6763 29.9996H54.6704L54.0492 31.7065H52.4364L55.367 24.1824H56.9734L59.9856 31.7065ZM57.1868 28.732L56.1514 25.9395L55.1348 28.732H57.1868Z" fill="#A1DAF8"/>
<path d="M60.7888 31.7065V24.1824H63.2236C64.1461 24.1824 64.7485 24.2201 65.0309 24.2954C65.4639 24.4083 65.8216 24.6531 66.1165 25.0296C66.4115 25.4061 66.5558 25.8956 66.5558 26.4917C66.5558 26.9561 66.4742 27.3452 66.3048 27.6589C66.1354 27.9727 65.922 28.2237 65.6647 28.3994C65.4074 28.5814 65.1439 28.7006 64.874 28.7571C64.5101 28.8262 63.9892 28.8638 63.2989 28.8638H62.3074V31.7002H60.7888V31.7065ZM62.3074 25.4563V27.5899H63.1421C63.7382 27.5899 64.1398 27.5523 64.3406 27.4707C64.5414 27.3891 64.6983 27.2699 64.8176 27.1004C64.9305 26.931 64.987 26.7365 64.987 26.5168C64.987 26.2407 64.9054 26.0148 64.7485 25.8391C64.5854 25.6634 64.3846 25.5504 64.1398 25.5065C63.9578 25.4751 63.5939 25.4563 63.0479 25.4563H62.3074Z" fill="#A1DAF8"/>
<path d="M66.8948 24.1824H68.5954L70.3525 28.0857L71.8523 24.1824H73.4399L70.8984 29.8992C70.6223 30.5205 70.3399 30.9911 70.0512 31.3112C69.7626 31.6375 69.3923 31.7944 68.9405 31.7944C68.495 31.7944 68.1436 31.763 67.8863 31.7065V30.577C68.0996 30.5895 68.2942 30.5958 68.4699 30.5958C68.8213 30.5958 69.0723 30.533 69.2292 30.4012C69.3798 30.2757 69.5304 29.9996 69.6685 29.5729L66.8948 24.1824Z" fill="#A1DAF8"/>
<path d="M79.0123 28.9454L80.487 29.4098C80.2611 30.2318 79.8846 30.8405 79.3637 31.2422C78.8366 31.6375 78.1714 31.8383 77.3619 31.8383C76.3641 31.8383 75.5421 31.4994 74.8957 30.8154C74.2494 30.1314 73.9293 29.1964 73.9293 28.0167C73.9293 26.7616 74.2556 25.7889 74.902 25.0986C75.5483 24.4084 76.4018 24.0569 77.456 24.0569C78.3785 24.0569 79.1253 24.3268 79.6963 24.8727C80.0352 25.1928 80.2925 25.6571 80.4682 26.2596L78.9621 26.6173C78.8743 26.2282 78.686 25.9207 78.4036 25.6948C78.1212 25.4689 77.7761 25.3559 77.3745 25.3559C76.816 25.3559 76.3641 25.5567 76.019 25.9584C75.6739 26.36 75.4981 27.0063 75.4981 27.9037C75.4981 28.8575 75.6676 29.5353 76.0127 29.9369C76.3516 30.3385 76.7971 30.5393 77.3494 30.5393C77.751 30.5393 78.1024 30.4138 78.3911 30.1565C78.6797 29.8992 78.8868 29.4913 79.0123 28.9454Z" fill="#A1DAF8"/>
<path d="M81.8235 24.1824H83.3421V27.1883H85.3753C86.3354 27.1883 87.0257 27.4142 87.4587 27.8598C87.8854 28.3053 88.1051 28.845 88.1051 29.4725C88.1051 29.9871 87.9733 30.4201 87.716 30.7778C87.4587 31.1355 87.1575 31.3802 86.8249 31.512C86.4923 31.6375 86.0091 31.7065 85.3816 31.7065H81.8298V24.1824H81.8235ZM83.3421 30.4452H84.8231C85.3 30.4452 85.6326 30.4201 85.8208 30.3761C86.0028 30.3322 86.1723 30.2255 86.3166 30.0624C86.4609 29.8992 86.5362 29.6984 86.5362 29.4537C86.5362 29.1085 86.4107 28.8575 86.166 28.6944C85.9213 28.5312 85.4945 28.4559 84.8984 28.4559H83.3547V30.4452H83.3421Z" fill="#A1DAF8"/>
</svg>
