<svg width="127" height="44" viewBox="0 0 127 44" fill="none" xmlns="http://www.w3.org/2000/svg">
<path d="M15.4019 9.35113V13.4978C15.7404 13.1593 16.0789 12.4823 16.0789 11.4668C16.0789 10.3666 15.7404 9.68963 15.4019 9.35113ZM14.1325 20.691C14.2171 20.1832 14.2171 19.3369 13.8786 18.5753C13.5401 17.8137 12.9477 17.3059 12.6092 17.1367C12.5246 17.4752 12.44 18.2368 12.7785 19.0831C13.117 19.8447 13.794 20.4371 14.1325 20.691ZM14.9787 13.5824V9.18188C14.6402 9.52038 14.2171 10.1974 14.2171 11.3821C14.2171 12.5669 14.6402 13.2439 14.9787 13.5824ZM17.6021 19.2523C17.9406 18.4907 17.856 17.7291 17.7714 17.3059C17.4329 17.4752 16.8405 17.9829 16.502 18.7446C16.1635 19.5062 16.1635 20.3525 16.2481 20.8602C16.6712 20.6063 17.2636 20.014 17.6021 19.2523ZM28.0111 6.05073C25.9801 4.44284 22.2565 4.18896 15.0634 4.18896C7.95481 4.18896 4.23128 4.44284 2.20026 6.13535C0.16925 7.82786 0 10.8744 0 16.2904C0 21.7911 0.16925 24.8376 2.20026 26.5301C4.23128 28.138 7.95481 28.3919 15.0634 28.3919C22.1719 28.3919 25.9801 28.138 28.0111 26.5301C30.0421 24.8376 30.2113 21.7911 30.2113 16.2904C30.2113 10.7898 30.0421 7.74324 28.0111 6.05073ZM19.887 7.82787C20.2255 7.40474 20.7333 7.32011 20.7333 7.32011C20.7333 7.32011 21.6642 6.81236 22.5104 7.48936C23.5259 8.25099 22.8489 9.68963 22.8489 9.68963C22.8489 9.68963 22.6797 10.959 22.595 11.1283C22.5104 11.2975 22.1719 11.4668 22.1719 11.4668C22.1719 11.4668 21.918 11.5514 21.7488 11.5514C21.4949 11.5514 21.241 11.4668 21.1564 11.4668C21.0718 11.4668 20.9871 11.1283 20.9871 11.1283C20.9871 11.1283 20.9871 10.959 20.9025 10.8744C20.8179 10.7898 20.3101 10.7898 19.9716 10.1974C19.7178 9.77425 19.887 9.18187 19.887 8.84337C19.9716 8.33562 19.887 7.82787 19.887 7.82787ZM7.02392 7.40474C8.03943 6.98161 9.22419 7.40474 9.64732 8.33562C9.98582 9.01262 9.81657 9.2665 9.39344 9.43575C9.47807 9.605 9.47807 9.77425 9.47807 9.94351C9.47807 10.7051 8.88569 11.2975 8.12406 11.2975C7.6163 11.2975 7.10855 10.959 6.9393 10.4513C6.51617 10.5359 6.26229 10.5359 6.00842 10.0281C5.58529 9.01262 6.00842 7.82786 7.02392 7.40474ZM28.1803 23.8221H20.1409L20.0563 23.9914C20.0563 23.9914 19.6331 25.43 18.7023 25.1761C17.856 25.0069 18.1945 23.8221 18.1945 23.8221H15.4019V25.43H14.9787V23.9067H12.44L12.5246 24.2452C12.5246 24.2452 12.6938 24.9222 12.0168 25.2607C11.3398 25.5146 11.0013 24.6684 11.0013 24.6684C11.0013 24.6684 10.8321 24.3299 10.6628 23.9914H2.03102V23.5682H10.4936C10.4089 23.399 10.4089 23.2297 10.3243 23.0605C10.0704 22.2988 9.73195 20.9448 9.64732 20.9448C9.56269 20.8602 9.05494 20.8602 8.46256 20.8602C7.87018 20.7756 7.44705 20.6063 7.36243 20.6063C7.19318 20.691 5.92379 22.2988 5.07754 22.4681C4.23128 22.6373 3.38502 21.5372 3.38502 21.5372L2.36952 20.1832C2.36952 20.1832 1.94639 19.6755 2.28489 19.3369C2.62339 18.9984 3.04652 19.2523 3.04652 19.2523C3.04652 19.2523 4.48516 20.1832 4.65441 20.2678C4.73903 20.3525 4.82366 20.2678 4.82366 20.2678C4.82366 20.2678 5.07753 20.014 5.16216 19.9293C5.24679 19.8447 5.16216 19.7601 5.16216 19.7601C5.16216 19.7601 4.48516 19.0831 4.23128 18.8292C3.9774 18.5753 4.23128 18.2368 4.23128 18.2368L6.2623 14.1748L3.55428 14.7672C3.55428 14.7672 3.04652 14.8518 2.9619 14.5133C2.87727 14.1748 3.38502 13.9209 3.38502 13.9209L6.9393 11.8899C6.9393 11.8899 7.10855 11.8053 7.19318 11.8053C7.2778 11.8053 7.36243 11.8899 7.36243 11.8899C7.36243 11.8899 7.87018 12.2284 8.54718 12.2284C9.22419 12.2284 9.64732 11.8053 9.64732 11.8053C9.64732 11.8053 9.73194 11.7206 9.9012 11.7206C10.0704 11.7206 10.3243 12.0591 10.3243 12.0591L13.4555 15.5288C13.4555 15.5288 13.794 15.8673 13.5401 16.2058C13.2862 16.4597 12.7785 16.2058 12.7785 16.2058L10.7475 15.021C10.6628 15.021 10.6628 15.1057 10.6628 15.1057L12.6092 23.8221H15.2326V14.1748C15.0634 14.0902 13.9632 13.2439 13.9632 11.3821C13.9632 9.35113 15.2326 8.5895 15.2326 8.50487C15.3172 8.42024 15.4019 8.42024 15.4865 8.50487C15.5711 8.50487 16.7559 9.35113 16.7559 11.3821C16.7559 13.0747 15.9096 13.8363 15.6557 14.0902V23.3143H18.533L19.7178 17.6444C19.7178 17.6444 20.3948 14.4287 20.3101 14.4287C20.2255 14.4287 17.9406 15.9519 17.9406 15.9519C17.9406 15.9519 17.6021 16.2904 17.2636 15.9519C16.9251 15.6134 17.4329 15.1903 17.4329 15.1903L20.4794 11.7206C20.4794 11.7206 20.564 11.636 20.7333 11.636C20.9025 11.636 20.9025 11.7206 20.9025 11.7206L21.241 12.5669C21.3256 12.5669 21.7488 12.0591 21.7488 12.0591C21.7488 12.0591 22.0027 11.8053 22.0873 11.8053C22.1719 11.8053 22.2565 11.8899 22.2565 11.8899L22.7643 12.5669C22.7643 12.5669 22.8489 12.7361 22.9335 12.7361L23.0182 12.6515L23.6105 11.5514C23.6105 11.5514 23.6952 11.2975 23.8644 11.2129C23.949 11.1283 24.2029 11.2975 24.2029 11.2975L27.5879 13.3285C27.5879 13.3285 28.0957 13.5824 27.9264 14.0055C27.7572 14.5133 26.9956 14.2594 26.9956 14.2594L24.3722 13.9209V14.0055C24.3722 14.0055 26.2339 18.2368 26.1493 18.4907C26.1493 18.6599 25.8954 18.8292 25.8954 18.8292C25.8954 18.8292 25.3031 19.1677 25.3031 19.2523C25.3031 19.3369 25.3877 19.3369 25.3877 19.3369C25.3877 19.3369 25.7262 19.6754 25.8108 19.6754C25.8954 19.6754 26.0647 19.5908 26.0647 19.5908L27.1648 18.9984C27.1648 18.9984 27.6726 18.5753 28.0957 18.9984C28.5188 19.3369 27.9264 19.8447 27.9264 19.8447L26.8263 21.0295C26.8263 21.0295 26.2339 21.9603 25.5569 22.045C24.8799 22.1296 24.2875 21.5372 24.2875 21.5372C24.2875 21.5372 22.4258 19.7601 22.4258 19.6754C22.3412 19.5908 22.3412 19.6754 22.3412 19.6754C22.3412 19.6754 22.1719 20.1832 22.0873 20.2678C22.0027 20.3525 21.8334 20.3525 21.8334 20.3525C21.8334 20.3525 20.9871 20.6063 20.9871 20.691L20.9025 20.8602L20.1409 23.399H28.0957L28.1803 23.8221ZM14.2171 18.4061C14.8095 19.6754 14.471 21.0295 14.471 21.1141C14.471 21.1987 14.3864 21.1987 14.3864 21.2833C14.3017 21.2833 14.2171 21.2833 14.2171 21.2833C14.1325 21.2833 12.9477 20.5217 12.3553 19.2523C11.763 17.9829 12.1861 16.7982 12.1861 16.7136C12.1861 16.6289 12.2707 16.6289 12.2707 16.6289C12.3553 16.6289 12.3553 16.6289 12.44 16.6289C12.5246 16.6289 13.7093 17.1367 14.2171 18.4061ZM17.856 16.7982C17.9406 16.7982 17.9406 16.7982 18.0253 16.7982C18.1099 16.7982 18.1099 16.8828 18.1099 16.8828C18.1099 16.8828 18.533 18.1522 18.0253 19.4216C17.5175 20.691 16.2481 21.4526 16.2481 21.4526C16.1635 21.4526 16.0789 21.5372 16.0789 21.4526C15.9096 21.4526 15.9096 21.368 15.9096 21.368C15.9096 21.368 15.5711 19.9293 16.1635 18.6599C16.6712 17.3059 17.7714 16.7982 17.856 16.7982Z" fill="white"/>
<path d="M39.048 8.25488C39.0766 8.76513 39.197 9.17945 39.4093 9.49784C39.8134 10.0938 40.5257 10.3918 41.5462 10.3918C42.0034 10.3918 42.4198 10.3265 42.7953 10.1959C43.5219 9.94278 43.8852 9.48968 43.8852 8.83656C43.8852 8.34673 43.7321 7.99772 43.426 7.78954C43.1157 7.58544 42.63 7.40787 41.9687 7.25684L40.7502 6.98131C39.9542 6.8017 39.3909 6.60373 39.0603 6.38738C38.4888 6.01184 38.2031 5.45057 38.2031 4.70357C38.2031 3.89534 38.4827 3.23202 39.0419 2.71361C39.6011 2.19519 40.3931 1.93599 41.4176 1.93599C42.3606 1.93599 43.1606 2.16458 43.8178 2.62176C44.4791 3.07486 44.8097 3.80145 44.8097 4.80153H43.6648C43.6035 4.31986 43.4729 3.95044 43.2729 3.69328C42.9014 3.22385 42.2708 2.98914 41.3809 2.98914C40.6625 2.98914 40.1461 3.14017 39.8318 3.44224C39.5175 3.7443 39.3603 4.09535 39.3603 4.49539C39.3603 4.93624 39.544 5.25872 39.9114 5.46281C40.1522 5.59344 40.6972 5.75672 41.5462 5.95265L42.8075 6.24043C43.4158 6.37922 43.8852 6.56903 44.2158 6.80986C44.7873 7.23031 45.073 7.84056 45.073 8.64063C45.073 9.63663 44.7097 10.3489 43.9831 10.7775C43.2606 11.2061 42.4198 11.4205 41.4605 11.4205C40.342 11.4205 39.4664 11.1347 38.8337 10.5632C38.201 9.99584 37.8908 9.22639 37.903 8.25488H39.048ZM50.498 1.91762C52.0859 1.91762 53.2615 2.42787 54.0248 3.44836C54.6208 4.24434 54.9188 5.2628 54.9188 6.50372C54.9188 7.84669 54.5779 8.96311 53.8962 9.85298C53.0962 10.898 51.9552 11.4205 50.4735 11.4205C49.0897 11.4205 48.0018 10.9633 47.2099 10.0489C46.5038 9.1672 46.1507 8.05283 46.1507 6.70577C46.1507 5.48935 46.4527 4.44844 47.0569 3.58307C47.8324 2.47277 48.9795 1.91762 50.498 1.91762ZM50.6204 10.3306C51.694 10.3306 52.4696 9.94686 52.9472 9.17945C53.4288 8.40796 53.6697 7.52217 53.6697 6.52209C53.6697 5.46485 53.3921 4.61376 52.8369 3.96881C52.2859 3.32386 51.5307 3.00138 50.5715 3.00138C49.6408 3.00138 48.8815 3.32182 48.2937 3.96269C47.7059 4.59948 47.412 5.54037 47.412 6.78537C47.412 7.78137 47.663 8.62226 48.1651 9.30803C48.6713 9.98972 49.4897 10.3306 50.6204 10.3306ZM57.172 8.25488C57.2006 8.76513 57.321 9.17945 57.5333 9.49784C57.9374 10.0938 58.6497 10.3918 59.6702 10.3918C60.1273 10.3918 60.5437 10.3265 60.9193 10.1959C61.6458 9.94278 62.0091 9.48968 62.0091 8.83656C62.0091 8.34673 61.8561 7.99772 61.5499 7.78954C61.2397 7.58544 60.7539 7.40787 60.0927 7.25684L58.8742 6.98131C58.0782 6.8017 57.5149 6.60373 57.1842 6.38738C56.6128 6.01184 56.327 5.45057 56.327 4.70357C56.327 3.89534 56.6066 3.23202 57.1659 2.71361C57.7251 2.19519 58.517 1.93599 59.5416 1.93599C60.4845 1.93599 61.2846 2.16458 61.9418 2.62176C62.6031 3.07486 62.9337 3.80145 62.9337 4.80153H61.7887C61.7275 4.31986 61.5969 3.95044 61.3968 3.69328C61.0254 3.22385 60.3947 2.98914 59.5048 2.98914C58.7864 2.98914 58.2701 3.14017 57.9557 3.44224C57.6414 3.7443 57.4843 4.09535 57.4843 4.49539C57.4843 4.93624 57.668 5.25872 58.0353 5.46281C58.2762 5.59344 58.8211 5.75672 59.6702 5.95265L60.9315 6.24043C61.5397 6.37922 62.0091 6.56903 62.3398 6.80986C62.9113 7.23031 63.197 7.84056 63.197 8.64063C63.197 9.63663 62.8337 10.3489 62.1071 10.7775C61.3846 11.2061 60.5437 11.4205 59.5844 11.4205C58.466 11.4205 57.5904 11.1347 56.9577 10.5632C56.325 9.99584 56.0148 9.22639 56.027 8.25488H57.172ZM67.5014 13.0859V10.104H68.3158C68.4015 9.90808 68.4811 9.71011 68.5546 9.51009C68.6281 9.30599 68.6954 9.0774 68.7566 8.82432C68.822 8.56715 68.8811 8.27325 68.9342 7.94261C68.9914 7.61197 69.0444 7.2201 69.0934 6.767C69.1505 6.28941 69.1955 5.81999 69.2281 5.35872C69.2608 4.89338 69.2853 4.45865 69.3016 4.05453C69.322 3.65042 69.3342 3.28508 69.3383 2.95852C69.3465 2.63197 69.3526 2.3646 69.3567 2.15642H75.0143V10.104H76.0307V13.0859H74.9041V11.1572H68.6281V13.0859H67.5014ZM70.4833 3.20956C70.4833 3.79329 70.4588 4.37497 70.4098 4.95461C70.3649 5.53425 70.3098 6.11797 70.2445 6.70577C70.1996 7.17112 70.1527 7.56707 70.1037 7.89363C70.0588 8.2161 70.0098 8.50388 69.9567 8.75697C69.9078 9.00597 69.8506 9.2366 69.7853 9.44886C69.7241 9.65704 69.6526 9.87543 69.571 10.104H73.7775V3.20956H70.4833ZM76.9981 2.15642H83.5681V3.20956H78.1982V5.98939H83.1517V7.04254H78.1982V10.104H83.6538V11.1572H76.9981V2.15642ZM84.609 2.15642H91.932V3.20956H88.8706V11.1572H87.6643V3.20956H84.609V2.15642ZM93.7873 6.64454C93.7873 7.20786 93.8587 7.7181 94.0016 8.17528C94.1445 8.62838 94.3445 9.01413 94.6016 9.33252C94.8629 9.65092 95.1752 9.89788 95.5385 10.0734C95.9058 10.2448 96.31 10.3306 96.7508 10.3306C97.1345 10.3306 97.4774 10.2612 97.7795 10.1224C98.0856 9.9836 98.3489 9.80195 98.5693 9.57744C98.7898 9.34885 98.9673 9.09169 99.102 8.80595C99.2367 8.52021 99.3265 8.23039 99.3714 7.93649H100.535C100.51 8.19774 100.453 8.4651 100.363 8.7386C100.278 9.00801 100.159 9.27129 100.008 9.52846C99.8613 9.78154 99.6837 10.0224 99.4755 10.251C99.2673 10.4755 99.0265 10.6714 98.753 10.8388C98.4836 11.0061 98.1815 11.1388 97.8468 11.2368C97.5121 11.3347 97.1468 11.3837 96.7508 11.3837C96.4773 11.3837 96.1834 11.3551 95.8691 11.298C95.5589 11.2408 95.2486 11.1449 94.9384 11.0102C94.6323 10.8755 94.3363 10.6959 94.0506 10.4714C93.7689 10.2428 93.5199 9.95707 93.3036 9.61418C93.0872 9.27129 92.9138 8.86718 92.7831 8.40183C92.6525 7.93241 92.5872 7.38746 92.5872 6.767C92.5872 6.15879 92.6443 5.61589 92.7586 5.1383C92.877 4.66071 93.0362 4.24434 93.2362 3.88921C93.4403 3.53 93.6771 3.22589 93.9465 2.97689C94.22 2.72789 94.5118 2.52583 94.8221 2.37072C95.1323 2.2156 95.4548 2.10335 95.7895 2.03396C96.1242 1.96456 96.4569 1.92987 96.7875 1.92987C97.1957 1.92987 97.5672 1.97273 97.9019 2.05845C98.2407 2.14009 98.5428 2.25438 98.8081 2.40133C99.0775 2.5442 99.3122 2.71156 99.5123 2.90342C99.7123 3.09527 99.8796 3.29937 100.014 3.51571C100.153 3.72798 100.259 3.94636 100.333 4.17087C100.41 4.39538 100.457 4.61376 100.474 4.82603H99.298C99.2204 4.53621 99.1061 4.277 98.9551 4.04841C98.804 3.81982 98.6204 3.62797 98.404 3.47285C98.1917 3.31366 97.9509 3.19324 97.6815 3.1116C97.4162 3.02588 97.1304 2.98302 96.8243 2.98302C96.363 2.98302 95.9446 3.06874 95.5691 3.24018C95.1976 3.41162 94.8792 3.65654 94.6139 3.97493C94.3486 4.29333 94.1445 4.67908 94.0016 5.13217C93.8587 5.58119 93.7873 6.08531 93.7873 6.64454ZM102.09 2.15642H103.29V6.54045L107.68 2.15642H109.358L105.611 5.78733L109.462 11.1572H107.919L104.747 6.62005L103.29 8.02221V11.1572H102.09V2.15642ZM110.454 2.15642H111.654V9.43661H111.679L116.259 2.15642H117.648V11.1572H116.442V3.83411H116.418L111.844 11.1572H110.454V2.15642ZM119.516 2.15642H126.086V3.20956H120.716V5.98939H125.67V7.04254H120.716V10.104H126.172V11.1572H119.516V2.15642Z" fill="white"/>
<path d="M37.5234 27.4723V24.4904H38.3378C38.4235 24.2944 38.5031 24.0965 38.5766 23.8964C38.65 23.6923 38.7174 23.4638 38.7786 23.2107C38.8439 22.9535 38.9031 22.6596 38.9562 22.329C39.0133 21.9983 39.0664 21.6065 39.1154 21.1534C39.1725 20.6758 39.2174 20.2063 39.2501 19.7451C39.2828 19.2797 39.3072 18.845 39.3236 18.4409C39.344 18.0368 39.3562 17.6714 39.3603 17.3449C39.3685 17.0183 39.3746 16.7509 39.3787 16.5428H45.0363V24.4904H46.0527V27.4723H44.9261V25.5435H38.65V27.4723H37.5234ZM40.5053 17.5959C40.5053 18.1796 40.4808 18.7613 40.4318 19.341C40.3869 19.9206 40.3318 20.5043 40.2665 21.0921C40.2216 21.5575 40.1747 21.9534 40.1257 22.28C40.0808 22.6025 40.0318 22.8902 39.9787 23.1433C39.9297 23.3923 39.8726 23.6229 39.8073 23.8352C39.7461 24.0434 39.6746 24.2618 39.593 24.4904H43.7995V17.5959H40.5053ZM47.0201 16.5428H53.5901V17.5959H48.2202V20.3757H53.1737V21.4289H48.2202V24.4904H53.6758V25.5435H47.0201V16.5428ZM59.0456 20.7554C59.6824 20.7554 60.1416 20.6207 60.4233 20.3512C60.7049 20.0818 60.8458 19.69 60.8458 19.1756C60.8458 18.6613 60.7049 18.2694 60.4233 18C60.1416 17.7306 59.6824 17.5959 59.0456 17.5959H56.5842V20.7554H59.0456ZM55.3841 16.5428H59.1681C59.662 16.5428 60.0886 16.606 60.4478 16.7326C60.8111 16.8591 61.1111 17.0387 61.3479 17.2714C61.5846 17.5 61.7601 17.7755 61.8744 18.098C61.9928 18.4205 62.052 18.7797 62.052 19.1756C62.052 19.5716 61.9928 19.9308 61.8744 20.2533C61.7601 20.5758 61.5846 20.8533 61.3479 21.086C61.1111 21.3146 60.8111 21.4922 60.4478 21.6187C60.0886 21.7452 59.662 21.8085 59.1681 21.8085H56.5842V25.5435H55.3841V16.5428ZM63.7481 16.5428H70.318V17.5959H64.9482V20.3757H69.9016V21.4289H64.9482V24.4904H70.4037V25.5435H63.7481V16.5428ZM72.112 16.5428H75.3327C75.6878 16.5428 75.9981 16.553 76.2634 16.5734C76.5287 16.5897 76.7777 16.6285 77.0104 16.6897C77.2308 16.7509 77.437 16.8408 77.6288 16.9591C77.8247 17.0734 77.9962 17.2204 78.1431 17.4C78.2901 17.5755 78.4044 17.7816 78.486 18.0184C78.5717 18.2511 78.6146 18.5144 78.6146 18.8083C78.6146 18.9634 78.5942 19.1307 78.5534 19.3103C78.5126 19.49 78.4452 19.6675 78.3513 19.843C78.2574 20.0145 78.1329 20.1757 77.9778 20.3268C77.8268 20.4737 77.639 20.5941 77.4145 20.688C77.5982 20.7492 77.786 20.835 77.9778 20.9452C78.1697 21.0554 78.3432 21.1983 78.4983 21.3738C78.6575 21.5452 78.7881 21.7554 78.8901 22.0044C78.9922 22.2494 79.0432 22.5433 79.0432 22.8862C79.0432 23.0821 79.0187 23.2862 78.9697 23.4984C78.9248 23.7066 78.8493 23.9087 78.7432 24.1046C78.6411 24.3006 78.5085 24.4863 78.3452 24.6618C78.1819 24.8373 77.9839 24.9904 77.7513 25.121C77.5186 25.2517 77.2492 25.3557 76.943 25.4333C76.641 25.5068 76.296 25.5435 75.9083 25.5435H72.112V16.5428ZM75.7307 24.4904C76.1226 24.4904 76.4512 24.4536 76.7165 24.3802C76.9859 24.3026 77.2022 24.1965 77.3655 24.0618C77.5329 23.923 77.6533 23.7577 77.7268 23.5658C77.8003 23.3739 77.837 23.1596 77.837 22.9229C77.837 22.6861 77.8003 22.4718 77.7268 22.28C77.6533 22.0881 77.5329 21.9248 77.3655 21.7901C77.2022 21.6514 76.9859 21.5452 76.7165 21.4718C76.4512 21.3942 76.1226 21.3554 75.7307 21.3554H73.3121V24.4904H75.7307ZM75.5592 20.3757C75.9552 20.3757 76.2736 20.339 76.5144 20.2655C76.7593 20.188 76.9471 20.0859 77.0777 19.9594C77.2124 19.8288 77.3022 19.6757 77.3472 19.5002C77.3921 19.3246 77.4145 19.1369 77.4145 18.9368C77.4145 18.7246 77.3818 18.5368 77.3165 18.3735C77.2553 18.2062 77.1512 18.0653 77.0043 17.951C76.8573 17.8368 76.6655 17.749 76.4287 17.6878C76.192 17.6265 75.9021 17.5959 75.5592 17.5959H73.3121V20.3757H75.5592ZM80.476 16.5428H81.6761V20.2533H86.4642V16.5428H87.6705V25.5435H86.4642V21.3064H81.6761V25.5435H80.476V16.5428ZM89.538 16.5428H90.7381V23.823H90.7626L95.3425 16.5428H96.7324V25.5435H95.5262V18.2205H95.5017L90.9279 25.5435H89.538V16.5428Z" fill="white"/>
<path d="M37.5736 31.2221H43.7333V32.2752H38.7737V34.9326H41.2841C41.8107 34.9326 42.2679 34.9938 42.6557 35.1163C43.0435 35.2388 43.366 35.4143 43.6231 35.6429C43.8803 35.8715 44.0701 36.149 44.1926 36.4756C44.3191 36.8021 44.3824 37.1695 44.3824 37.5777C44.3824 37.9778 44.3191 38.3411 44.1926 38.6676C44.066 38.9901 43.8803 39.2677 43.6354 39.5003C43.3945 39.7289 43.0965 39.9065 42.7414 40.033C42.3904 40.1596 41.9883 40.2228 41.5352 40.2228H37.5736V31.2221ZM38.7737 39.1697H41.376C41.6209 39.1697 41.8475 39.1432 42.0556 39.0901C42.2679 39.037 42.4516 38.9493 42.6067 38.8268C42.7618 38.7003 42.8822 38.537 42.968 38.337C43.0578 38.1329 43.1027 37.8798 43.1027 37.5777C43.1027 37.2797 43.0557 37.0287 42.9618 36.8246C42.872 36.6205 42.7414 36.4572 42.57 36.3348C42.3985 36.2082 42.1903 36.1184 41.9454 36.0654C41.7005 36.0123 41.4229 35.9858 41.1127 35.9858H38.7737V39.1697ZM45.8764 31.2221H52.4463V32.2752H47.0765V35.0551H52.0299V36.1082H47.0765V39.1697H52.532V40.2228H45.8764V31.2221ZM59.7816 32.2752H56.5671C56.5671 32.9733 56.5589 33.659 56.5426 34.3326C56.5262 35.0061 56.4915 35.6449 56.4385 36.249C56.3854 36.8491 56.3058 37.4022 56.1997 37.9084C56.0935 38.4145 55.9486 38.8533 55.7649 39.2248C55.5813 39.5922 55.3527 39.88 55.0792 40.0881C54.8098 40.2922 54.4812 40.3943 54.0934 40.3943C53.975 40.3943 53.875 40.3841 53.7934 40.3637C53.7158 40.3433 53.6301 40.3208 53.5362 40.2963V39.1819C53.5811 39.2023 53.6362 39.2207 53.7015 39.237C53.7709 39.2493 53.8689 39.2554 53.9954 39.2554C54.1832 39.2554 54.3444 39.1881 54.4791 39.0534C54.6179 38.9146 54.7363 38.7227 54.8343 38.4778C54.9322 38.2329 55.0118 37.9431 55.0731 37.6083C55.1384 37.2695 55.1894 36.9022 55.2261 36.5062C55.2669 36.1103 55.2955 35.6918 55.3118 35.251C55.3323 34.8101 55.3465 34.3632 55.3547 33.9101C55.367 33.4529 55.3731 32.9977 55.3731 32.5446C55.3772 32.0875 55.3833 31.6466 55.3914 31.2221H60.9878V40.2228H59.7816V32.2752ZM67.6129 36.5123L66.2413 32.5079L64.7228 36.5123H67.6129ZM62.1389 40.2228L65.5127 31.0813H66.9761L70.2396 40.2228H68.9048L67.9558 37.4675H64.4167L63.4125 40.2228H62.1389ZM75.0217 35.4347C75.6584 35.4347 76.1177 35.3 76.3993 35.0306C76.681 34.7612 76.8218 34.3693 76.8218 33.855C76.8218 33.3406 76.681 32.9488 76.3993 32.6794C76.1177 32.4099 75.6584 32.2752 75.0217 32.2752H72.5602V35.4347H75.0217ZM71.3601 31.2221H75.1441C75.638 31.2221 76.0646 31.2854 76.4238 31.4119C76.7871 31.5384 77.0871 31.718 77.3239 31.9507C77.5606 32.1793 77.7362 32.4548 77.8505 32.7773C77.9688 33.0998 78.028 33.459 78.028 33.855C78.028 34.2509 77.9688 34.6101 77.8505 34.9326C77.7362 35.2551 77.5606 35.5327 77.3239 35.7653C77.0871 35.9939 76.7871 36.1715 76.4238 36.298C76.0646 36.4246 75.638 36.4878 75.1441 36.4878H72.5602V40.2228H71.3601V31.2221ZM80.6242 39.0166C80.6691 39.0534 80.7283 39.0921 80.8017 39.133C80.8752 39.1697 80.9548 39.2044 81.0405 39.237C81.1262 39.2656 81.214 39.2901 81.3038 39.3105C81.3977 39.3268 81.4875 39.335 81.5732 39.335C81.7569 39.335 81.9141 39.3105 82.0447 39.2615C82.1794 39.2085 82.2937 39.1411 82.3876 39.0595C82.4855 38.9738 82.5651 38.8778 82.6264 38.7717C82.6876 38.6615 82.7366 38.5472 82.7733 38.4288L79.0812 31.2221H80.4833L83.4591 37.1859L85.7123 31.2221H87.0716L84.2428 37.9512C84.0469 38.4002 83.8632 38.7839 83.6918 39.1023C83.5244 39.4166 83.3407 39.6738 83.1407 39.8738C82.9448 40.0738 82.7203 40.2188 82.4672 40.3086C82.2182 40.4024 81.9161 40.4494 81.561 40.4494C81.3773 40.4494 81.1977 40.4249 81.0222 40.3759C80.8466 40.3269 80.7119 40.2637 80.618 40.1861L80.6242 39.0166ZM88.8473 35.7102C88.8473 36.2735 88.9187 36.7838 89.0616 37.241C89.2045 37.6941 89.4045 38.0798 89.6616 38.3982C89.9229 38.7166 90.2352 38.9636 90.5985 39.1391C90.9658 39.3105 91.37 39.3962 91.8108 39.3962C92.1945 39.3962 92.5374 39.3268 92.8395 39.1881C93.1456 39.0493 93.4089 38.8676 93.6293 38.6431C93.8498 38.4145 94.0273 38.1574 94.162 37.8716C94.2967 37.5859 94.3865 37.2961 94.4314 37.0022H95.5948C95.5703 37.2634 95.5132 37.5308 95.4234 37.8043C95.3376 38.0737 95.2193 38.337 95.0682 38.5941C94.9213 38.8472 94.7437 39.0881 94.5355 39.3166C94.3273 39.5411 94.0865 39.7371 93.813 39.9044C93.5436 40.0718 93.2415 40.2045 92.9068 40.3024C92.5721 40.4004 92.2068 40.4494 91.8108 40.4494C91.5373 40.4494 91.2434 40.4208 90.9291 40.3637C90.6189 40.3065 90.3086 40.2106 89.9984 40.0759C89.6923 39.9412 89.3963 39.7616 89.1106 39.5371C88.8289 39.3085 88.5799 39.0227 88.3636 38.6799C88.1472 38.337 87.9738 37.9329 87.8431 37.4675C87.7125 36.9981 87.6472 36.4531 87.6472 35.8327C87.6472 35.2245 87.7043 34.6816 87.8186 34.204C87.937 33.7264 88.0962 33.31 88.2962 32.9549C88.5003 32.5957 88.7371 32.2916 89.0065 32.0426C89.28 31.7936 89.5718 31.5915 89.8821 31.4364C90.1923 31.2813 90.5148 31.169 90.8495 31.0996C91.1842 31.0302 91.5169 30.9955 91.8475 30.9955C92.2557 30.9955 92.6272 31.0384 92.9619 31.1241C93.3007 31.2058 93.6028 31.3201 93.8681 31.467C94.1375 31.6099 94.3722 31.7772 94.5723 31.9691C94.7723 32.1609 94.9396 32.365 95.0743 32.5814C95.2131 32.7936 95.3193 33.012 95.3927 33.2365C95.4703 33.4611 95.5172 33.6794 95.5336 33.8917H94.358C94.2804 33.6019 94.1661 33.3427 94.0151 33.1141C93.864 32.8855 93.6803 32.6936 93.464 32.5385C93.2517 32.3793 93.0109 32.2589 92.7415 32.1773C92.4762 32.0916 92.1904 32.0487 91.8843 32.0487C91.423 32.0487 91.0046 32.1344 90.6291 32.3059C90.2576 32.4773 89.9392 32.7222 89.6739 33.0406C89.4086 33.359 89.2045 33.7447 89.0616 34.1978C88.9187 34.6469 88.8473 35.151 88.8473 35.7102ZM97.15 31.2221H98.3563V34.9326H100.75C101.289 34.9326 101.757 34.9938 102.152 35.1163C102.548 35.2388 102.875 35.4143 103.132 35.6429C103.389 35.8715 103.581 36.149 103.708 36.4756C103.834 36.8021 103.898 37.1695 103.898 37.5777C103.898 37.9778 103.834 38.3411 103.708 38.6676C103.581 38.9901 103.395 39.2677 103.151 39.5003C102.91 39.7289 102.612 39.9065 102.257 40.033C101.906 40.1596 101.503 40.2228 101.05 40.2228H97.15V31.2221ZM100.891 39.1697C101.136 39.1697 101.363 39.1432 101.571 39.0901C101.783 39.037 101.967 38.9493 102.122 38.8268C102.277 38.7003 102.397 38.537 102.483 38.337C102.573 38.1329 102.618 37.8798 102.618 37.5777C102.618 37.2797 102.571 37.0287 102.477 36.8246C102.387 36.6205 102.257 36.4572 102.085 36.3348C101.914 36.2082 101.706 36.1184 101.461 36.0654C101.216 36.0123 100.938 35.9858 100.628 35.9858H98.3563V39.1697H100.891Z" fill="#A1DAF8"/>
</svg>
