<svg width="113" height="7" viewBox="0 0 113 7" fill="none" xmlns="http://www.w3.org/2000/svg">
<path d="M0.5 3H0V4H0.5V3ZM112.5 3.5L107.5 0.613249V6.38675L112.5 3.5ZM1.48246 4H1.98246V3H1.48246V4ZM5.41228 3H4.91228V4H5.41228V3ZM7.37719 4H7.87719V3H7.37719V4ZM11.307 3H10.807V4H11.307V3ZM13.2719 4H13.7719V3H13.2719V4ZM17.2018 3H16.7018V4H17.2018V3ZM19.1667 4H19.6667V3H19.1667V4ZM23.0965 3H22.5965V4H23.0965V3ZM25.0614 4H25.5614V3H25.0614V4ZM28.9912 3H28.4912V4H28.9912V3ZM30.9561 4H31.4561V3H30.9561V4ZM34.886 3H34.386V4H34.886V3ZM36.8509 4H37.3509V3H36.8509V4ZM40.7807 3H40.2807V4H40.7807V3ZM42.7456 4H43.2456V3H42.7456V4ZM46.6754 3H46.1754V4H46.6754V3ZM48.6404 4H49.1404V3H48.6404V4ZM52.5702 3H52.0702V4H52.5702V3ZM54.5351 4H55.0351V3H54.5351V4ZM58.4649 3H57.9649V4H58.4649V3ZM60.4298 4H60.9298V3H60.4298V4ZM64.3596 3H63.8597V4H64.3596V3ZM66.3246 4H66.8246V3H66.3246V4ZM70.2544 3H69.7544V4H70.2544V3ZM72.2193 4H72.7193V3H72.2193V4ZM76.1491 3H75.6491V4H76.1491V3ZM78.114 4H78.614V3H78.114V4ZM82.0439 3H81.5439V4H82.0439V3ZM84.0088 4H84.5088V3H84.0088V4ZM87.9386 3H87.4386V4H87.9386V3ZM89.9035 4H90.4035V3H89.9035V4ZM93.8333 3H93.3333V4H93.8333V3ZM95.7982 4H96.2982V3H95.7982V4ZM99.7281 3H99.2281V4H99.7281V3ZM101.693 4H102.193V3H101.693V4ZM105.623 3H105.123V4H105.623V3ZM107.588 4H108.088V3H107.588V4ZM111.518 3H111.018V4H111.518V3ZM0.5 4H1.48246V3H0.5V4ZM5.41228 4H7.37719V3H5.41228V4ZM11.307 4H13.2719V3H11.307V4ZM17.2018 4H19.1667V3H17.2018V4ZM23.0965 4H25.0614V3H23.0965V4ZM28.9912 4H30.9561V3H28.9912V4ZM34.886 4H36.8509V3H34.886V4ZM40.7807 4H42.7456V3H40.7807V4ZM46.6754 4H48.6404V3H46.6754V4ZM52.5702 4H54.5351V3H52.5702V4ZM58.4649 4H60.4298V3H58.4649V4ZM64.3596 4H66.3246V3H64.3596V4ZM70.2544 4H72.2193V3H70.2544V4ZM76.1491 4H78.114V3H76.1491V4ZM82.0439 4H84.0088V3H82.0439V4ZM87.9386 4H89.9035V3H87.9386V4ZM93.8333 4H95.7982V3H93.8333V4ZM99.7281 4H101.693V3H99.7281V4ZM105.623 4H107.588V3H105.623V4Z" fill="#D8DFED"/>
</svg>
