<svg width="31" height="31" viewBox="0 0 31 31" fill="none" xmlns="http://www.w3.org/2000/svg">
<path d="M7.71717 0C7.10831 0 6.61475 0.49356 6.61475 1.10242V3.30719H8.81952V1.10242C8.81952 0.49356 8.32596 0 7.71717 0Z" fill="#00B2FF"/>
<path d="M23.1508 0C22.5419 0 22.0483 0.49356 22.0483 1.10242V3.30719H24.2531V1.10242C24.2532 0.49356 23.7596 0 23.1508 0Z" fill="#00B2FF"/>
<path d="M27.56 3.30713H24.2528V7.71674C24.2528 8.3256 23.7592 8.81916 23.1504 8.81916C22.5415 8.81916 22.0479 8.3256 22.0479 7.71674V3.30713H8.81917V7.71674C8.81917 8.3256 8.32561 8.81916 7.71675 8.81916C7.10789 8.81916 6.61433 8.3256 6.61433 7.71674V3.30713H3.3072C1.48068 3.30713 0 4.78781 0 6.61432V27.5599C0 29.3864 1.48068 30.8671 3.3072 30.8671H27.56C29.3865 30.8671 30.8672 29.3864 30.8672 27.5599V6.61432C30.8672 4.78781 29.3865 3.30713 27.56 3.30713ZM28.6623 27.5599C28.6623 28.1688 28.1688 28.6623 27.5599 28.6623H3.3072C2.69834 28.6623 2.20478 28.1688 2.20478 27.5599V13.2287H28.6623V27.5599Z" fill="#00B2FF"/>
<path d="M8.81891 15.4336H6.61414C6.00528 15.4336 5.51172 15.9272 5.51172 16.536C5.51172 17.1449 6.00528 17.6384 6.61414 17.6384H8.81891C9.42777 17.6384 9.92133 17.1449 9.92133 16.536C9.92133 15.9272 9.42777 15.4336 8.81891 15.4336Z" fill="#00B2FF"/>
<path d="M16.5357 15.4336H14.3309C13.7221 15.4336 13.2285 15.9272 13.2285 16.536C13.2285 17.1449 13.7221 17.6384 14.3309 17.6384H16.5357C17.1446 17.6384 17.6381 17.1449 17.6381 16.536C17.6381 15.9272 17.1446 15.4336 16.5357 15.4336Z" fill="#00B2FF"/>
<path d="M24.2525 15.4336H22.0477C21.4389 15.4336 20.9453 15.9272 20.9453 16.536C20.9453 17.1449 21.4389 17.6384 22.0477 17.6384H24.2525C24.8614 17.6384 25.3549 17.1449 25.3549 16.536C25.3549 15.9272 24.8613 15.4336 24.2525 15.4336Z" fill="#00B2FF"/>
<path d="M8.81891 19.8433H6.61414C6.00528 19.8433 5.51172 20.3368 5.51172 20.9457C5.51172 21.5545 6.00528 22.0481 6.61414 22.0481H8.81891C9.42777 22.0481 9.92133 21.5545 9.92133 20.9457C9.92133 20.3368 9.42777 19.8433 8.81891 19.8433Z" fill="#00B2FF"/>
<path d="M16.5357 19.8433H14.3309C13.7221 19.8433 13.2285 20.3368 13.2285 20.9457C13.2285 21.5545 13.7221 22.0481 14.3309 22.0481H16.5357C17.1446 22.0481 17.6381 21.5545 17.6381 20.9457C17.6381 20.3368 17.1446 19.8433 16.5357 19.8433Z" fill="#00B2FF"/>
<path d="M24.2525 19.8433H22.0477C21.4389 19.8433 20.9453 20.3368 20.9453 20.9457C20.9453 21.5545 21.4389 22.0481 22.0477 22.0481H24.2525C24.8614 22.0481 25.3549 21.5545 25.3549 20.9457C25.3549 20.3368 24.8613 19.8433 24.2525 19.8433Z" fill="#00B2FF"/>
<path d="M8.81891 24.2524H6.61414C6.00528 24.2524 5.51172 24.746 5.51172 25.3549C5.51172 25.9637 6.00528 26.4572 6.61414 26.4572H8.81891C9.42777 26.4572 9.92133 25.9637 9.92133 25.3548C9.92133 24.7459 9.42777 24.2524 8.81891 24.2524Z" fill="#00B2FF"/>
<path d="M16.5357 24.2524H14.3309C13.7221 24.2524 13.2285 24.746 13.2285 25.3549C13.2285 25.9637 13.7221 26.4573 14.3309 26.4573H16.5357C17.1446 26.4573 17.6381 25.9637 17.6381 25.3549C17.6381 24.746 17.1446 24.2524 16.5357 24.2524Z" fill="#00B2FF"/>
<path d="M24.2525 24.2524H22.0477C21.4389 24.2524 20.9453 24.746 20.9453 25.3549C20.9453 25.9637 21.4389 26.4573 22.0477 26.4573H24.2525C24.8614 26.4573 25.3549 25.9637 25.3549 25.3549C25.3549 24.746 24.8613 24.2524 24.2525 24.2524Z" fill="#00B2FF"/>
</svg>
