<svg width="122" height="124" viewBox="0 0 122 124" fill="none" xmlns="http://www.w3.org/2000/svg">
<path d="M38 40H85V81H38L38 40Z" fill="#93AD10"/>
<path d="M68 23.4348V49H57.375C44.4654 48.9998 34.0002 38.5078 34 25.5652V0H44.625C57.5346 0.00018531 67.9998 10.4922 68 23.4348Z" fill="#A2BA18"/>
<path d="M51 46.7143V51H25.5C18.737 51.0001 12.2509 48.2909 7.46871 43.4685C2.68652 38.6462 -5.91774e-05 32.1056 0 25.2857V21H25.5C32.263 20.9999 38.7491 23.7091 43.5313 28.5315C48.3135 33.3538 51.0001 39.8944 51 46.7143Z" fill="#B9CD2A"/>
<path d="M51 48.1527V51H47.7727L38.4519 42.7768C35.068 39.7888 30.723 38.142 26.2252 38.1429C21.1521 38.1345 16.2251 36.4293 12.2161 33.2946L0 23.7134V21H3.46109L14.8245 29.9116C18.087 32.4629 22.0967 33.8505 26.2252 33.8571C31.7522 33.8573 37.0914 35.8798 41.2516 39.5491L51 48.1527Z" fill="#ACC221"/>
<path d="M68 45.791V49H65.1578L53.465 35.8126C50.507 32.4785 48.8736 28.1712 48.875 23.7091C48.8853 20.0046 47.4171 16.4499 44.7976 13.8372L34 3.01457V0H37.0069L47.8019 10.8253C51.2213 14.2348 53.1381 18.8741 53.125 23.7091C53.1233 27.1278 54.3749 30.4279 56.6419 32.9818L68 45.791Z" fill="#93AD10"/>
<path d="M34 103C49.464 103 62 90.464 62 75C62 59.536 49.464 47 34 47C18.536 47 6 59.536 6 75C6 90.464 18.536 103 34 103Z" fill="#545E94"/>
<path d="M88 81C105.673 81 120 66.6731 120 49C120 31.3269 105.673 17 88 17C70.3269 17 56 31.3269 56 49C56 66.6731 70.3269 81 88 81Z" fill="#5D68A3"/>
<path d="M90 124C107.673 124 122 109.673 122 92C122 74.3269 107.673 60 90 60C72.3269 60 58 74.3269 58 92C58 109.673 72.3269 124 90 124Z" fill="#6C78B8"/>
<path d="M82.9697 37.2255L80.4595 40.448C79.8961 41.1712 79.8465 42.1518 80.3343 42.9243C80.8221 43.6968 81.749 44.1058 82.6752 43.9572L89.2658 42.8996C89.8044 42.8132 90.3573 42.9143 90.8255 43.1847L95.1531 45.6847C95.9988 46.1733 97.074 46.0877 97.8248 45.472C98.5757 44.8563 98.8346 43.848 98.4683 42.9663L97.0641 39.5862C96.7974 38.9443 96.8577 38.2193 97.2271 37.6265L99.6726 33.7023C100.18 32.8881 100.091 31.8529 99.4516 31.13C98.8122 30.4071 97.7649 30.1577 96.8492 30.5104L93.5234 31.7912C92.7552 32.0871 91.881 31.9624 91.2349 31.4647L86.0679 27.4848C85.3244 26.9121 84.2912 26.8403 83.47 27.3042C82.6488 27.7681 82.2099 28.6716 82.3664 29.5758L83.3979 35.5346C83.5011 36.1309 83.3464 36.7419 82.9697 37.2255Z" fill="#49538C"/>
<path d="M33.529 57.9313L30.6085 63.8871C30.4125 64.2867 30.0689 64.5906 29.6532 64.7319L27.1298 65.5896C26.5311 65.793 26.0984 66.3265 26.0147 66.9642C25.9309 67.602 26.2107 68.2327 26.7358 68.5896L29.5667 70.514C30.0264 70.8265 30.3024 71.3525 30.3024 71.9158V76.3153C30.3024 76.9534 30.656 77.5368 31.2158 77.8221C31.7755 78.1075 32.4454 78.0459 32.946 77.663L37.9889 73.8065C38.4895 73.4236 39.1594 73.3621 39.7191 73.6474L44.0961 75.8789C44.6732 76.1732 45.3655 76.0979 45.8688 75.6862C46.3722 75.2745 46.5944 74.6018 46.4379 73.9635L45.3606 69.5695C45.2477 69.109 45.3305 68.6213 45.5887 68.2264L47.7225 64.9628C48.0605 64.4458 48.092 63.7811 47.8045 63.2334C47.517 62.6856 46.9571 62.3436 46.3478 62.3436H41.616C41.1778 62.3436 40.7576 62.1661 40.4477 61.8501L36.1751 57.4935C35.7995 57.1105 35.2663 56.935 34.7421 57.0218C34.2179 57.1085 33.7665 57.4469 33.529 57.9313Z" fill="#3F498A"/>
<path d="M90.5794 85.0927H95.6476C96.1447 85.0927 96.6128 84.8577 96.9111 84.4584L101.262 78.6343C101.59 78.1946 102.122 77.9571 102.667 78.0064C103.212 78.0558 103.693 78.385 103.938 78.8766L106.708 84.4404C106.914 84.8544 107.291 85.1573 107.738 85.2696L112.804 86.5412C113.356 86.6798 113.791 87.1057 113.943 87.6563C114.095 88.2069 113.94 88.7969 113.537 89.2009L109.615 93.1393C109.319 93.4367 109.152 93.84 109.152 94.2606V100.414C109.152 101.056 108.767 101.634 108.177 101.879C107.587 102.125 106.908 101.989 106.456 101.536L101.548 96.607C101.035 96.0924 100.24 95.9941 99.6182 96.3685L94.0998 99.6929C93.5185 100.043 92.7794 99.9818 92.2633 99.5404C91.7471 99.0991 91.5691 98.3763 91.8209 97.7443L93.8686 92.6043C94.1338 91.9386 93.9211 91.177 93.3498 90.7468L89.6318 87.947C89.088 87.5375 88.8662 86.8245 89.0811 86.177C89.2961 85.5295 89.8996 85.0927 90.5794 85.0927Z" fill="#545E94"/>
</svg>
