<svg width="32" height="29" viewBox="0 0 32 29" fill="none" xmlns="http://www.w3.org/2000/svg">
<path fill-rule="evenodd" clip-rule="evenodd" d="M10.2526 19.096H10.2512C9.73824 19.0972 9.32144 19.5202 9.32144 20.04C9.32144 20.5606 9.7397 20.9842 10.2536 20.9842H27.1565C27.6713 20.9842 28.0886 21.4069 28.0886 21.9285C28.0886 22.45 27.6713 22.8727 27.1565 22.8727H10.2536C8.71167 22.8727 7.45716 21.6019 7.45716 20.04C7.45716 18.8776 8.15214 17.8771 9.14278 17.4409C8.96606 16.6356 5.89533 2.63766 5.77735 2.09939H0.932144C0.41728 2.09939 0 1.6767 0 1.15515C0 0.633603 0.41728 0.210907 0.932144 0.210907H6.52501C6.96195 0.210907 7.34015 0.518278 7.43507 0.950318L8.1014 3.98788H30.8851C31.1776 3.98788 31.4531 4.12705 31.6293 4.36361C31.8053 4.60016 31.8616 4.90655 31.7813 5.19154L28.0527 18.4109C27.9384 18.8162 27.5725 19.0958 27.1565 19.0958H10.2563L10.2526 19.096ZM26.4532 17.2073L29.6492 5.87636H8.51553L11.0012 17.2073H26.4532Z" fill="#3B2218"/>
<path fill-rule="evenodd" clip-rule="evenodd" d="M12.0685 28.4C10.5562 28.4 9.32568 27.1602 9.32568 25.6363C9.32568 24.1125 10.5562 22.8727 12.0685 22.8727C13.5809 22.8727 14.8114 24.1125 14.8114 25.6363C14.8114 27.1602 13.5809 28.4 12.0685 28.4ZM12.9828 25.6363C12.9828 25.1285 12.5726 24.7151 12.0685 24.7151C11.5645 24.7151 11.1543 25.1285 11.1543 25.6363C11.1543 26.1442 11.5645 26.5576 12.0685 26.5576C12.5726 26.5576 12.9828 26.1442 12.9828 25.6363Z" fill="#3B2218"/>
<path fill-rule="evenodd" clip-rule="evenodd" d="M25.2341 28.4C23.7217 28.4 22.4912 27.1602 22.4912 25.6363C22.4912 24.1125 23.7217 22.8727 25.2341 22.8727C26.7464 22.8727 27.9769 24.1125 27.9769 25.6363C27.9769 27.1602 26.7464 28.4 25.2341 28.4ZM26.1484 25.6363C26.1484 25.1285 25.7381 24.7151 25.2341 24.7151C24.73 24.7151 24.3198 25.1285 24.3198 25.6363C24.3198 26.1442 24.73 26.5576 25.2341 26.5576C25.7381 26.5576 26.1484 26.1442 26.1484 25.6363Z" fill="#3B2218"/>
</svg>
