<svg width="33" height="33" viewBox="0 0 33 33" fill="none" xmlns="http://www.w3.org/2000/svg">
<path d="M24.1581 24.1586C19.8278 28.4889 12.807 28.4889 8.47666 24.1586C4.14634 19.8283 4.14634 12.8074 8.47666 8.47712C12.807 4.14681 19.8278 4.14681 24.1581 8.47712C28.4884 12.8074 28.4884 19.8283 24.1581 24.1586Z" stroke="#C8CFD7" stroke-width="0.9"/>
<rect x="21.5742" y="10.288" width="1.2031" height="16.4423" rx="0.601548" transform="rotate(45 21.5742 10.288)" fill="#C8CFD7"/>
<path fill-rule="evenodd" clip-rule="evenodd" d="M21.9994 21.4892C22.2344 21.7241 22.2344 22.105 21.9994 22.3399V22.3399C21.7645 22.5748 21.3836 22.5748 21.1487 22.3399L10.373 11.5642C10.1381 11.3292 10.1381 10.9484 10.373 10.7134V10.7134C10.6079 10.4785 10.9888 10.4785 11.2237 10.7134L21.9994 21.4892Z" fill="#C8CFD7"/>
</svg>
