<svg width="37" height="37" viewBox="0 0 37 37" fill="none" xmlns="http://www.w3.org/2000/svg">
<path d="M10.5484 26.1516C15.0497 30.6529 22.3478 30.6529 26.8491 26.1516C31.3504 21.6503 31.3504 14.3522 26.8491 9.8509C22.3478 5.34959 15.0497 5.34959 10.5484 9.8509C6.04709 14.3522 6.04709 21.6503 10.5484 26.1516Z" fill="#C8CFD7"/>
<rect x="23.9502" y="11.9778" width="1.20183" height="16.425" rx="0.600915" transform="rotate(45 23.9502 11.9778)" fill="white"/>
<path fill-rule="evenodd" clip-rule="evenodd" d="M24.3749 23.1671C24.6096 23.4018 24.6096 23.7823 24.3749 24.017C24.1402 24.2516 23.7597 24.2516 23.5251 24.017L12.7607 13.2525C12.526 13.0179 12.526 12.6374 12.7607 12.4027C12.9953 12.1681 13.3758 12.1681 13.6105 12.4027L24.3749 23.1671Z" fill="white"/>
</svg>
