<svg width="123" height="82" viewBox="0 0 123 82" fill="none" xmlns="http://www.w3.org/2000/svg">
<path d="M12.7999 0.0799561H110.08C117.149 0.0799561 122.88 5.81068 122.88 12.8799V69.2C122.88 76.2692 117.149 81.9999 110.08 81.9999H12.7999C5.73072 82.0001 0 76.2694 0 69.2V12.8801C0 5.81068 5.73072 0.0799561 12.7999 0.0799561Z" fill="url(#paint0_linear)"/>
<rect y="15.4399" width="122.88" height="20.4799" fill="#455A64"/>
<path d="M38.4004 56.4002H17.9204C16.5066 56.4002 15.3604 55.2539 15.3604 53.8401C15.3604 52.4263 16.5066 51.28 17.9204 51.28H38.4004C39.8142 51.28 40.9604 52.4263 40.9604 53.8401C40.9604 55.2539 39.8142 56.4002 38.4004 56.4002Z" fill="#FAFAFA"/>
<path d="M53.7604 66.6402H17.9204C16.5066 66.6402 15.3604 65.4939 15.3604 64.0801C15.3604 62.6663 16.5066 61.52 17.9204 61.52H53.7604C55.1742 61.52 56.3204 62.6663 56.3204 64.0801C56.3204 65.4939 55.1742 66.6402 53.7604 66.6402Z" fill="#FAFAFA"/>
<defs>
<linearGradient id="paint0_linear" x1="87.0601" y1="-28.9401" x2="39.5444" y2="71.6579" gradientUnits="userSpaceOnUse">
<stop stop-color="#45C7FA"/>
<stop offset="1" stop-color="#2196F3"/>
</linearGradient>
</defs>
</svg>
