<svg width="22" height="17" viewBox="0 0 22 17" fill="none" xmlns="http://www.w3.org/2000/svg">
<path fill-rule="evenodd" clip-rule="evenodd" d="M0.165201 1.3335C1.23141 2.07091 2.21289 2.74961 3.19437 3.42837C5.46212 4.99695 7.72967 6.56577 9.99767 8.1339C10.4595 8.45319 10.6837 8.45149 11.1527 8.12691C14.3243 5.93174 17.4957 3.73625 20.6673 1.54102C20.738 1.49207 20.8103 1.4452 20.9045 1.38226C21.0734 1.69165 21.1302 2.01591 21.1313 2.35221C21.1342 3.28776 21.1335 4.22331 21.1334 5.15879C21.1332 7.71388 21.135 10.269 21.1314 12.8239C21.1295 14.1845 20.1564 15.1612 18.7993 15.1618C13.313 15.1641 7.82657 15.1641 2.34021 15.1619C0.984453 15.1614 0.00335412 14.1818 0.00228312 12.8288C-0.00042588 9.35396 -0.00281988 5.87907 0.00814212 2.40424C0.00921312 2.06745 0.104406 1.73096 0.165201 1.3335L11 2.31715Z" fill="#D8DFED"/>
<path fill-rule="evenodd" clip-rule="evenodd" d="M2.42221 0.0648978C6.67345 0.0668508 10.9247 0.0661578 15.1759 0.0661578C16.386 0.0661578 17.5963 0.0555738 18.8062 0.0730878C19.1352 0.0778128 19.4631 0.167021 19.7914 0.217484C19.793 0.244826 19.7947 0.272105 19.7963 0.299447C19.7287 0.348587 19.6622 0.399176 19.5934 0.446741C16.649 2.48536 13.7041 4.52334 10.7605 6.56316C10.6454 6.64292 10.5592 6.69376 10.4119 6.59151C7.42561 4.51679 4.43462 2.44888 1.44471 0.379331C1.41314 0.35747 1.3836 0.332648 1.32324 0.28628C1.6899 0.108368 2.05001 0.0647718 2.42221 0.0648978Z" fill="#D8DFED"/>
</svg>
