<svg width="29" height="30" viewBox="0 0 29 30" fill="none" xmlns="http://www.w3.org/2000/svg">
<path fill-rule="evenodd" clip-rule="evenodd" d="M28.5408 14.8921C28.5408 23.1168 22.1517 29.7842 14.2704 29.7842C6.38907 29.7842 0 23.1168 0 14.8921C0 6.66742 6.38907 0 14.2704 0C22.1517 0 28.5408 6.66742 28.5408 14.8921ZM9.39166 14.8886C9.39166 12.0757 11.5758 9.79386 14.2737 9.79386C16.9692 9.79386 19.1558 12.0732 19.1558 14.8886C19.1558 17.7016 16.9716 19.9833 14.2737 19.9833C11.5782 19.9833 9.39166 17.704 9.39166 14.8886ZM11.1049 14.8886C11.1049 16.7154 12.5224 18.1955 14.2737 18.1955C16.025 18.1955 17.4433 16.7154 17.4425 14.8886C17.4425 13.0618 16.0242 11.5817 14.2737 11.5817C12.5232 11.5817 11.1049 13.0618 11.1049 14.8886ZM18.193 5.02666C16.4425 4.94144 12.1066 4.94558 10.3546 5.02666C8.81493 5.10195 7.45687 5.48997 6.36201 6.63251C4.72463 8.34122 4.73974 10.5812 4.76102 13.7373V13.7374C4.76352 14.1082 4.7661 14.4917 4.7661 14.8885C4.7661 15.2598 4.7642 15.6187 4.76236 15.9658V15.9658C4.74503 19.228 4.73326 21.4448 6.36201 23.1445C8.00239 24.8556 10.1726 24.8387 13.1628 24.8155H13.1628C13.5211 24.8128 13.8911 24.8099 14.2734 24.8099H14.3249C17.9512 24.8099 19.2107 24.8099 20.5008 24.2887C22.2632 23.5747 23.5935 21.9308 23.7235 18.978C23.806 17.1504 23.8012 12.6266 23.7235 10.7981C23.5666 7.31258 21.774 5.19874 18.193 5.02666ZM20.9638 21.8811C19.8591 23.0339 18.3604 23.0303 15.1232 23.0226C14.8454 23.0219 14.5547 23.0212 14.2504 23.0212L13.7059 23.0215C10.1376 23.0241 8.64218 23.0252 7.53694 21.8687C6.38711 20.6745 6.40612 18.8575 6.43372 16.2205C6.43819 15.7938 6.44288 15.3457 6.44288 14.8752C6.44288 14.4763 6.43945 14.0872 6.43612 13.7089V13.7088C6.40132 9.75289 6.37703 6.99175 10.3894 6.7773L10.4349 6.77562C11.409 6.73969 11.7353 6.72766 14.2393 6.72766L14.2749 6.75248C14.637 6.75248 14.9923 6.74909 15.3395 6.74578C19.0449 6.71043 21.8315 6.68385 22.0135 10.8776C22.0587 11.9241 22.069 12.2385 22.069 14.8877C22.0689 15.1254 22.0691 15.355 22.0693 15.5768V15.5781C22.0726 19.1693 22.074 20.7171 20.9638 21.8811ZM20.4899 9.59334C20.4899 10.251 19.9792 10.7841 19.3491 10.7841C18.719 10.7841 18.2083 10.251 18.2083 9.59334C18.2083 8.93571 18.719 8.40259 19.3491 8.40259C19.9792 8.40259 20.4899 8.93571 20.4899 9.59334Z" fill="white"/>
</svg>
