<svg width="23" height="30" viewBox="0 0 23 30" fill="none" xmlns="http://www.w3.org/2000/svg">
<path fill-rule="evenodd" clip-rule="evenodd" d="M11.5 16.7116C8.47136 16.7116 6.01716 14.295 6.01716 11.3171C6.01716 8.33921 8.47136 5.92263 11.5 5.92263C14.527 5.92263 16.9812 8.33842 16.9812 11.3171C16.9812 14.2958 14.527 16.7116 11.5 16.7116ZM11.5 0C5.15871 0 0 5.07632 0 11.3155C0 20.2989 10.2661 29.3234 10.7033 29.7039C10.932 29.9013 11.216 30 11.5 30C11.7952 30 12.0905 29.8934 12.3207 29.6811C12.7564 29.28 23 19.7589 23 11.3163C23 5.07711 17.8397 0 11.5 0Z" fill="#D8DFED"/>
</svg>
