<svg width="26" height="26" viewBox="0 0 26 26" fill="none" xmlns="http://www.w3.org/2000/svg">
<path d="M23.6858 0.0162658C23.6594 0.0140839 23.637 0 23.6094 0H12.1875C10.4301 0 9 1.45818 9 3.25V4.33327C9 4.93134 9.47587 5.41673 10.0624 5.41673C10.649 5.41673 11.1249 4.93134 11.1249 4.33327V3.25C11.1249 2.65312 11.6019 2.16673 12.1875 2.16673H17.1377L16.8135 2.27722C15.953 2.58052 15.375 3.4071 15.375 4.33327V20.5833H12.1875C11.6019 20.5833 11.1249 20.0969 11.1249 19.5V17.3333C11.1249 16.7354 10.649 16.25 10.0624 16.25C9.47587 16.25 9 16.7354 9 17.3333V19.5C9 21.2918 10.4301 22.75 12.1875 22.75H15.375V23.8333C15.375 25.0282 16.3279 26 17.4999 26C17.7273 26 17.9431 25.9665 18.1767 25.8927L24.5603 23.7228C25.422 23.4195 26 22.5929 26 21.6667V2.16673C26 0.903549 24.9321 -0.0866852 23.6858 0.0162658Z" fill="#3B2218"/>
<path d="M11.68 9.7223L7.31653 5.32253C7.00453 5.00793 6.53552 4.91326 6.12744 5.08386C5.72055 5.25425 5.45449 5.65586 5.45449 6.10017V9.40005H1.09082C0.488781 9.40005 0 9.8929 0 10.4999C0 11.1072 0.488781 11.6 1.09082 11.6H5.45449V14.8999C5.45449 15.3442 5.72055 15.7456 6.12744 15.9162C6.53552 16.0866 7.00453 15.9922 7.31653 15.6776L11.68 11.2776C12.1067 10.8476 12.1067 10.1525 11.68 9.7223Z" fill="#3B2218"/>
</svg>
