<svg width="22" height="16" viewBox="0 0 22 16" fill="none" xmlns="http://www.w3.org/2000/svg">
<mask id="mask0" mask-type="alpha" maskUnits="userSpaceOnUse" x="0" y="1" width="22" height="15">
<path fill-rule="evenodd" clip-rule="evenodd" d="M0 1.33344H21.1337V15.1635H0V1.33344Z" fill="white"/>
</mask>
<g mask="url(#mask0)">
<path fill-rule="evenodd" clip-rule="evenodd" d="M0.165201 1.33344C1.23141 2.07085 2.21289 2.74955 3.19437 3.42831C5.46212 4.99689 7.72967 6.56571 9.99767 8.13384C10.4595 8.45313 10.6837 8.45143 11.1527 8.12685C14.3243 5.93168 17.4957 3.73619 20.6673 1.54096C20.738 1.49201 20.8103 1.44513 20.9045 1.3822C21.0734 1.69159 21.1302 2.01585 21.1313 2.35215C21.1342 3.2877 21.1335 4.22325 21.1334 5.15873C21.1332 7.71382 21.135 10.2689 21.1314 12.8239C21.1295 14.1844 20.1564 15.1612 18.7993 15.1617C13.313 15.1641 7.82657 15.164 2.34021 15.1619C0.984453 15.1613 0.00335412 14.1817 0.00228312 12.8287C-0.00042588 9.3539 -0.00281988 5.87901 0.00814212 2.40418C0.00921312 2.06739 0.104406 1.7309 0.165201 1.33344L11 2.31709Z" fill="#3B2218"/>
</g>
<mask id="mask1" mask-type="alpha" maskUnits="userSpaceOnUse" x="1" y="0" width="19" height="7">
<path fill-rule="evenodd" clip-rule="evenodd" d="M1.32324 0.0629883H19.7963V6.64867H1.32324V0.0629883Z" fill="white"/>
</mask>
<g mask="url(#mask1)">
<path fill-rule="evenodd" clip-rule="evenodd" d="M2.42221 0.0648978C6.67345 0.0668508 10.9247 0.0661578 15.1759 0.0661578C16.386 0.0661578 17.5963 0.0555738 18.8062 0.0730878C19.1352 0.0778128 19.4631 0.167021 19.7914 0.217484C19.793 0.244826 19.7947 0.272105 19.7963 0.299447C19.7287 0.348587 19.6622 0.399176 19.5934 0.446741C16.649 2.48536 13.7041 4.52334 10.7605 6.56316C10.6454 6.64292 10.5592 6.69376 10.4119 6.59151C7.42561 4.51679 4.43462 2.44888 1.44471 0.379331C1.41314 0.35747 1.3836 0.332648 1.32324 0.28628C1.6899 0.108368 2.05001 0.0647718 2.42221 0.0648978Z" fill="black"/>
</g>
</svg>
