<?xml version="1.0" encoding="utf-8"?>
<svg width="51px" height="13px" viewBox="0 0 51 13" version="1.1" xmlns:xlink="http://www.w3.org/1999/xlink" xmlns="http://www.w3.org/2000/svg">
  <desc>Created with Lunacy</desc>
  <g id="mastak--copy-4">
    <g id="Layer_6">
      <g id="Group">
        <path d="M49.9577 9.82096C49.8915 10.7449 49.6472 11.2027 49.2208 11.2027C49.0594 11.2027 48.931 11.1244 48.8317 10.9718C48.7323 10.815 48.6329 10.5304 48.5253 10.1179L47.5607 6.07984L50.0985 4.0051L50.1979 3.52663L47.068 3.52663L46.8279 4.65681L47.776 4.65681L45.0684 6.81816L46.5132 0L43.0977 0L42.8576 1.13017L44.4308 1.13017L42.634 9.57347C42.5802 9.58997 42.5223 9.59822 42.4519 9.59822C42.3773 9.59822 42.307 9.55285 42.2407 9.4621C42.1745 9.37136 42.1414 9.22287 42.1414 9.01663C42.1414 8.85577 42.1621 8.68666 42.1993 8.50929L43.2882 3.52663L41.4169 3.52663L41.2181 4.45882C40.9987 4.12059 40.7131 3.85661 40.3529 3.66687C39.9927 3.47714 39.5828 3.38639 39.1191 3.38639C38.3243 3.38639 37.6039 3.605 36.958 4.03397C36.6186 4.26083 36.3163 4.53307 36.0514 4.83829L33.0126 4.83829L33.6502 1.87262L31.7085 1.87262L31.1123 4.83829L30.1104 4.83829C30.069 4.27321 29.9324 3.60913 29.5557 3.13066C29.063 2.50783 28.1729 2.1696 27.0178 2.1696C26.1774 2.1696 25.4198 2.32634 24.745 2.64394C24.0701 2.95742 23.5402 3.38639 23.1593 3.92673C22.7784 4.46707 22.5839 5.06103 22.5839 5.71274C22.5839 6.15408 22.7081 6.51293 22.9606 6.78516C23.209 7.05739 23.5112 7.2595 23.8673 7.3915C24.2233 7.52349 24.6911 7.6596 25.2749 7.79984C25.7841 7.91121 26.1898 8.02258 26.4921 8.12982C26.7943 8.23706 27.0468 8.38968 27.2497 8.58766C27.4525 8.78565 27.556 9.04551 27.556 9.36311C27.556 9.81683 27.3863 10.2334 27.0551 10.6212C26.7198 11.0089 26.0988 11.1986 25.1921 11.1986Q23.8611 11.1986 23.2928 10.5402Q22.8695 10.0498 22.8695 9.194C22.8695 8.93002 22.9068 8.61241 22.9813 8.23294L21.8469 8.23294C21.7807 8.64128 21.7517 8.99601 21.7476 9.30537C21.6648 9.49098 21.5116 9.58585 21.2798 9.58585C21.2052 9.58585 21.1349 9.54047 21.0686 9.44973C21.0024 9.35899 20.9693 9.2105 20.9693 9.00426C20.9693 8.8434 20.99 8.67428 21.0272 8.49692L22.1285 3.52251L20.2572 3.52251L20.0584 4.4547C19.839 4.11647 19.5534 3.85249 19.1932 3.66275C18.833 3.47301 18.4231 3.38227 17.9595 3.38227C17.1646 3.38227 16.4442 3.60088 15.7984 4.02985C15.1525 4.46295 14.6433 5.04041 14.2748 5.75811C13.9064 6.47993 13.7242 7.24301 13.7242 8.05145C13.7242 8.20407 13.7366 8.34843 13.749 8.48867L12.2628 8.48867C12.2421 8.8104 12.1924 9.07438 12.1137 9.28062C12.0351 9.48685 11.8695 9.58997 11.6252 9.58997C11.5507 9.58997 11.4803 9.5446 11.4141 9.45385C11.3478 9.36311 11.3147 9.21462 11.3147 9.00839C11.3147 8.84752 11.3354 8.67841 11.3727 8.50105L11.6832 7.04914Q11.8943 6.04684 11.8943 5.34151C11.8943 4.67331 11.7535 4.17834 11.4679 3.86074C11.1864 3.53901 10.7517 3.38227 10.1638 3.38227C9.64627 3.38227 9.15361 3.53488 8.68992 3.83599C8.22624 4.13709 7.8288 4.56194 7.50174 5.1064C7.46447 4.52482 7.30715 4.09172 7.02563 3.80712C6.74825 3.52663 6.33425 3.38227 5.78776 3.38227C5.34478 3.38227 4.91836 3.49364 4.51263 3.7205C4.10691 3.94736 3.73845 4.26496 3.40724 4.68156L3.64737 3.52251L0.240122 3.52251L0 4.65268L1.57321 4.65268L0 12.337L1.84231 12.337L2.87732 7.19351C2.9891 6.66555 3.1547 6.19945 3.36584 5.78698C3.57699 5.37863 3.81711 5.06103 4.08207 4.84242C4.34703 4.61968 4.61199 4.51244 4.87696 4.51244C5.38618 4.51244 5.64286 4.88779 5.64286 5.64262C5.64286 5.97259 5.58076 6.44281 5.4607 7.05327L4.70307 10.5799L6.54539 10.5799L7.26989 7.19351C7.38167 6.66555 7.54728 6.19945 7.75842 5.78698C7.96956 5.37863 8.20968 5.06103 8.47464 4.84242C8.7396 4.61968 9.00457 4.51244 9.26953 4.51244C9.77875 4.51244 10.0354 4.88779 10.0354 5.64262C10.0354 5.97259 9.97333 6.44281 9.85327 7.05327L9.59659 8.22469C9.50965 8.62066 9.46825 8.95889 9.46825 9.23937C9.46825 9.79621 9.61315 10.1798 9.90709 10.3984C10.201 10.6129 10.6192 10.7243 11.1698 10.7243C11.7287 10.7243 12.1551 10.6376 12.4532 10.4644C12.7513 10.2912 12.9542 10.0478 13.0701 9.73021C13.0825 9.69721 13.0908 9.66009 13.1032 9.62297L14.1382 9.62297C14.2293 9.76321 14.3328 9.8952 14.4528 10.0107C14.9289 10.485 15.5789 10.7243 16.4028 10.7243C16.912 10.7243 17.4047 10.6129 17.8767 10.386C18.3486 10.1592 18.775 9.84983 19.1518 9.45385C19.189 9.93232 19.3505 10.2664 19.632 10.4479C19.9135 10.6294 20.3151 10.7243 20.8368 10.7243C21.2922 10.7243 21.6606 10.6665 21.9422 10.551C22.0498 10.8769 22.1947 11.1285 22.3437 11.3636C22.7288 11.9699 23.8217 12.337 25.1051 12.337C26.0035 12.337 26.7984 12.1803 27.4981 11.8627C28.1977 11.5492 28.7442 11.0996 29.1334 10.5222C29.5267 9.9447 29.7213 9.27649 29.7213 8.52579C29.7213 8.01845 29.5847 7.61423 29.3114 7.31725C29.0382 7.02027 28.707 6.80579 28.3178 6.66967C27.9286 6.53355 27.4318 6.40569 26.815 6.28195C26.3347 6.17883 25.958 6.08396 25.6889 5.99322C25.4198 5.90247 25.1921 5.77873 25.0099 5.61787C24.8278 5.457 24.7325 5.24664 24.7325 4.98266C24.7325 4.7558 24.7988 4.51657 24.9313 4.25671C25.0637 3.99685 25.2956 3.77412 25.6268 3.58438C25.958 3.39464 26.401 3.3039 26.9599 3.3039C27.6471 3.3039 28.1729 3.46889 28.5248 3.79887C28.8809 4.12884 29.0547 4.59081 29.0547 5.18065C29.0547 5.43638 29.0258 5.68799 28.9678 5.96847L30.8929 5.96847L30.0732 9.82096C30.0069 10.1138 29.9738 10.3819 29.9738 10.6253C29.9738 11.1409 30.1187 11.508 30.4127 11.7183C30.7066 11.9287 31.1165 12.0359 31.6464 12.0359C32.2426 12.0359 32.698 11.9411 33.0126 11.7554C33.3272 11.5657 33.5467 11.3059 33.6709 10.9718C33.7951 10.6376 33.8654 10.2004 33.882 9.66422L32.8884 9.66422C32.8429 10.4933 32.6234 10.9058 32.2384 10.9058C32.1432 10.9058 32.0645 10.8604 31.9983 10.7696C31.9321 10.6789 31.8989 10.5387 31.8989 10.3407C31.8989 10.2293 31.9238 10.0519 31.9693 9.81683L32.789 5.96434L35.3517 5.96434C35.0495 6.6243 34.8963 7.32138 34.8963 8.05145C34.8963 8.88052 35.1364 9.53222 35.6125 10.0066C36.0886 10.4809 36.7386 10.7201 37.5625 10.7201C38.0717 10.7201 38.5644 10.6088 39.0363 10.3819C39.5083 10.1551 39.9347 9.8457 40.3115 9.44973C40.3487 9.9282 40.5102 10.2623 40.7917 10.4438C41.0732 10.6253 41.4748 10.7201 41.9965 10.7201C42.4063 10.7201 42.7417 10.6706 43.0108 10.5799L44.2693 10.5799L44.7372 8.3938L46.0123 7.35025L46.6913 10.1179C46.8403 10.7655 46.9728 11.2275 47.0887 11.4997C47.2005 11.7719 47.3785 11.9782 47.6186 12.1225C47.8587 12.2628 48.2272 12.3329 48.7157 12.3329C49.4692 12.3329 50.0198 12.1267 50.3676 11.7101C50.7112 11.2976 50.91 10.6665 50.9555 9.81683L49.9577 9.81683L49.9577 9.82096ZM19.5368 6.9089L19.4664 7.24713C19.2967 7.90709 18.9986 8.4598 18.568 8.91352C18.1375 9.36724 17.6407 9.58997 17.0735 9.58997C16.6471 9.58997 16.3159 9.44561 16.0799 9.15275C15.8439 8.8599 15.7238 8.45567 15.7238 7.94008C15.7238 7.40387 15.8273 6.87178 16.0343 6.33969C16.2413 5.8076 16.5311 5.37038 16.8996 5.02803C17.2681 4.68568 17.6862 4.51244 18.1623 4.51244C18.6177 4.51244 18.9655 4.66506 19.218 4.97029C19.4664 5.27552 19.5948 5.69624 19.5948 6.23245C19.5906 6.48818 19.5741 6.71092 19.5368 6.9089ZM40.6303 7.24713L40.7006 6.9089C40.7379 6.71092 40.7586 6.48818 40.7586 6.23245C40.7586 5.69624 40.6303 5.27552 40.3819 4.97029C40.1293 4.66506 39.7816 4.51244 39.3262 4.51244C38.85 4.51244 38.4319 4.68568 38.0634 5.02803C37.695 5.37038 37.4052 5.8076 37.1982 6.33969C36.9912 6.87178 36.8877 7.40387 36.8877 7.94008C36.8877 8.45567 37.0077 8.8599 37.2437 9.15275C37.4797 9.44561 37.8109 9.58997 38.2373 9.58997C38.8045 9.58997 39.3013 9.36724 39.7319 8.91352C40.1624 8.4598 40.4605 7.90709 40.6303 7.24713Z" transform="translate(0.02070015 0.02062359)" id="Shape" fill="#000000" fill-rule="evenodd" stroke="none" />
        <path d="M0.0952207 2.42479C0.0828006 2.43304 0 2.2928 0 2.28867C0.550624 2.32992 2.41778 0.255185 2.41778 0.255185C2.5751 0.119069 2.72828 0.0406995 2.87318 0.0118265C3.01808 -0.0170466 3.15056 0.00770175 3.2582 0.077822C3.36998 0.147942 3.44864 0.267559 3.50246 0.428423C3.57699 0.704779 3.48176 1.12963 3.29546 1.32761C2.66204 1.99994 1.68085 2.35054 0.0952207 2.42479Z" transform="translate(38.08 0.3057769)" id="Shape" fill="#E30613" stroke="none" />
      </g>
    </g>
  </g>
</svg>