<svg width="28" height="32" viewBox="0 0 28 32" fill="none" xmlns="http://www.w3.org/2000/svg">
<g clip-path="url(#clip0)">
<path d="M1.98484 0.130859H18.8483L27.7868 9.03441V29.9025C27.7868 30.9991 26.8975 31.8873 25.8019 31.8873H1.98484C0.889226 31.8873 0 30.9991 0 29.9025V2.1157C0 1.01906 0.889226 0.130859 1.98484 0.130859Z" fill="#E2574C"/>
<path d="M27.758 9.06228H20.8403C19.7447 9.06228 18.8555 8.17305 18.8555 7.07744V0.150513L27.758 9.06228Z" fill="#B53629"/>
<path d="M20.3427 15.178C20.6754 15.178 20.8376 14.8884 20.8376 14.6071C20.8376 14.3165 20.6682 14.0352 20.3427 14.0352H18.4492C18.0796 14.0352 17.8722 14.3422 17.8722 14.68V19.3335C17.8722 19.7484 18.1083 19.9784 18.4277 19.9784C18.745 19.9784 18.9822 19.7484 18.9822 19.3335V18.0562H20.1271C20.4823 18.0562 20.66 17.7656 20.66 17.4771C20.66 17.1947 20.4823 16.9133 20.1271 16.9133H18.9822V15.178C18.9832 15.178 20.3427 15.178 20.3427 15.178ZM13.9425 14.0362H12.5574C12.1815 14.0362 11.9146 14.2939 11.9146 14.6769V19.3387C11.9146 19.8141 12.2986 19.963 12.5738 19.963H14.0278C15.7487 19.963 16.8844 18.8304 16.8844 17.0828C16.8823 15.2355 15.8134 14.0362 13.9425 14.0362ZM14.0093 18.814H13.1642V15.1862H13.9251C15.0772 15.1862 15.5783 15.9594 15.5783 17.0263C15.5793 18.0233 15.0864 18.814 14.0093 18.814ZM8.93371 14.0362H7.56085C7.17271 14.0362 6.95605 14.2919 6.95605 14.681V19.3346C6.95605 19.7494 7.20455 19.9794 7.53723 19.9794C7.86992 19.9794 8.11841 19.7494 8.11841 19.3346V17.9761H8.97889C10.0406 17.9761 10.9175 17.2234 10.9175 16.0138C10.9186 14.8299 10.0735 14.0362 8.93371 14.0362ZM8.91112 16.8846H8.12047V15.1287H8.91112C9.39886 15.1287 9.70999 15.5097 9.70999 16.0066C9.70896 16.5036 9.39886 16.8846 8.91112 16.8846Z" fill="white"/>
</g>
<defs>
<clipPath id="clip0">
<rect width="27.7868" height="31.7564" fill="white" transform="translate(0 0.130859)"/>
</clipPath>
</defs>
</svg>
