<svg width="21" height="21" viewBox="0 0 21 21" fill="none" xmlns="http://www.w3.org/2000/svg">
<path fill-rule="evenodd" clip-rule="evenodd" d="M17.6614 13.137C16.9025 12.3878 15.9549 12.3878 15.2009 13.137C14.6255 13.7074 14.0503 14.2778 13.4847 14.8579C13.33 15.0174 13.1995 15.0513 13.011 14.9449C12.6388 14.7419 12.2423 14.5776 11.8846 14.3551C10.2169 13.3062 8.81981 11.9575 7.58227 10.4396C6.96829 9.68555 6.42208 8.87822 6.04019 7.96948C5.96284 7.78579 5.9773 7.66494 6.12715 7.51509C6.70242 6.95918 7.26317 6.38872 7.82881 5.81835C8.61673 5.02558 8.61673 4.0974 7.82398 3.29979C7.37441 2.84545 6.92478 2.40067 6.47526 1.94628C6.01118 1.48221 5.55194 1.01336 5.08298 0.554134C4.32407 -0.185515 3.37654 -0.185515 2.62241 0.558968C2.04232 1.12938 1.48639 1.71429 0.896679 2.27504C0.350374 2.79223 0.0748775 3.42553 0.0168197 4.16508C-0.0749803 5.36879 0.219901 6.50478 0.635588 7.61177C1.48639 9.90308 2.78199 11.9381 4.35308 13.8041C6.47526 16.3275 9.00834 18.3239 11.9717 19.7644C13.3058 20.4122 14.6884 20.9101 16.1919 20.9923C17.2264 21.0502 18.1255 20.7892 18.8458 19.982C19.3388 19.4308 19.8947 18.9281 20.4169 18.4012C21.1903 17.6181 21.1952 16.6707 20.4265 15.8972C19.508 14.9739 18.5847 14.0555 17.6614 13.137Z" fill="#3B2218"/>
</svg>
