<svg width="58" height="123" viewBox="0 0 58 123" fill="none" xmlns="http://www.w3.org/2000/svg">
<g clip-path="url(#clip0)">
<path fill-rule="evenodd" clip-rule="evenodd" d="M-3.2469 0H-41.0873C-50.9803 0 -59 8.0197 -59 17.914V47.3616C-59 56.1509 -51.876 63.2762 -43.0854 63.2762H-36.6543C-28.9193 77.3487 -43.1296 105.113 -48.5857 113.049L-34.664 123.899C-23.3072 109.031 -15.2316 94.601 -10.4372 80.613C-5.6454 66.6263 -3.2469 49.9122 -3.2469 30.4772V0ZM57.9546 0H20.1155C10.2225 0 2.20153 8.0197 2.20153 17.914V47.3616C2.20153 56.1509 9.32683 63.2762 18.1161 63.2762H24.5472C32.2835 77.3487 18.0719 105.113 12.6158 113.049L26.5375 123.899C37.8943 109.031 45.9699 94.601 50.7643 80.613C55.5561 66.6263 57.9546 49.9122 57.9546 30.4772V0Z" fill="#D8DFED"/>
<mask id="mask0" mask-type="alpha" maskUnits="userSpaceOnUse" x="-59" y="0" width="117" height="124">
<path fill-rule="evenodd" clip-rule="evenodd" d="M-3.2469 0H-41.0873C-50.9803 0 -59 8.0197 -59 17.914V47.3616C-59 56.1509 -51.876 63.2762 -43.0854 63.2762H-36.6543C-28.9193 77.3487 -43.1296 105.113 -48.5857 113.049L-34.664 123.899C-23.3072 109.031 -15.2316 94.601 -10.4372 80.613C-5.6454 66.6263 -3.2469 49.9122 -3.2469 30.4772V0ZM57.9546 0H20.1155C10.2225 0 2.20153 8.0197 2.20153 17.914V47.3616C2.20153 56.1509 9.32683 63.2762 18.1161 63.2762H24.5472C32.2835 77.3487 18.0719 105.113 12.6158 113.049L26.5375 123.899C37.8943 109.031 45.9699 94.601 50.7643 80.613C55.5561 66.6263 57.9546 49.9122 57.9546 30.4772V0Z" fill="white"/>
</mask>
<g mask="url(#mask0)">
<rect x="-260.5" y="-136.5" width="1138.8" height="759.2"/>
</g>
</g>
<defs>
<clipPath id="clip0">
<rect width="58" height="123" fill="white"/>
</clipPath>
</defs>
</svg>
