<?xml version="1.0" encoding="UTF-8"?>
<svg width="36px" height="36px" viewBox="0 0 36 36" version="1.1" xmlns="http://www.w3.org/2000/svg" xmlns:xlink="http://www.w3.org/1999/xlink">
    <!-- Generator: Sketch 56.1 (81669) - https://sketch.com -->
    <title>Insta Copy</title>
    <desc>Created with Sketch.</desc>
    <g id="Page-1" stroke="none" stroke-width="1" fill="none" fill-rule="evenodd">
        <g id="Main-Mobile-Portrait" transform="translate(-51.000000, -5089.000000)" fill="#3E2620" fill-rule="nonzero">
            <g id="Insta-Copy" transform="translate(51.000000, 5089.000000)">
                <path d="M17.67087,35.34174 C7.91151798,35.34174 0,27.430222 0,17.67087 C0,7.91151798 7.91151798,0 17.67087,0 C27.430222,0 35.34174,7.91151798 35.34174,17.67087 C35.34174,27.430222 27.430222,35.34174 17.67087,35.34174 Z M17.6402973,5.99653864 C12.737405,5.99653864 8.08161526,5.56074099 6.3032872,10.1211003 C5.56873105,12.0046097 5.67540372,14.4507433 5.67540372,17.9533152 C5.67540372,21.0268355 5.57683277,23.9155128 6.3032872,25.7841808 C8.0775644,30.3472386 12.7711622,29.9100917 17.6375968,29.9100917 C22.3325448,29.9100917 27.1733239,30.3985089 28.9732566,25.7841808 C29.709163,23.8817823 29.6011401,21.4720777 29.6011401,17.9533152 C29.6011401,13.2823199 29.8590449,10.266816 27.5919129,8.00282692 C25.2964249,5.70915505 22.192115,5.99653864 17.6348962,5.99653864 L17.6402973,5.99653864 Z M16.5681694,8.15124098 C26.7952436,8.13505035 28.0969203,6.99900817 27.3785676,22.7808198 C27.1233633,28.3625378 22.8699591,27.7499925 17.6416476,27.7499925 C8.108621,27.7499925 7.83451273,27.4774503 7.83451273,17.9479183 C7.83451273,8.30775035 8.59067348,8.15663785 16.5681694,8.14854254 L16.5681694,8.15124098 Z M24.0271551,10.1359418 C23.2345366,10.1359418 22.5918,10.7781699 22.5918,11.5701613 C22.5918,12.3621527 23.2345366,13.0043808 24.0271551,13.0043808 C24.8197736,13.0043808 25.4625102,12.3621527 25.4625102,11.5701613 C25.4625102,10.7781699 24.8197736,10.1359418 24.0271551,10.1359418 Z M17.6402973,11.8130207 C14.247026,11.8130207 11.4964912,14.5627285 11.4964912,17.9533152 C11.4964912,21.3439019 14.247026,24.0922605 17.6402973,24.0922605 C21.0335687,24.0922605 23.7827531,21.3439019 23.7827531,17.9533152 C23.7827531,14.5627285 21.0335687,11.8130207 17.6402973,11.8130207 Z M17.6402973,13.967723 C22.9131683,13.967723 22.9199197,21.9389073 17.6402973,21.9389073 C12.3687767,21.9389073 12.3606749,13.967723 17.6402973,13.967723 Z" id="Combined-Shape"></path>
            </g>
        </g>
    </g>
</svg>