<svg width="36" height="36" viewBox="0 0 36 36" fill="none" xmlns="http://www.w3.org/2000/svg">
<path fill-rule="evenodd" clip-rule="evenodd" d="M35.3422 17.6709C35.3422 27.4302 27.4307 35.3417 17.6714 35.3417C7.91201 35.3417 0.000488281 27.4302 0.000488281 17.6709C0.000488281 7.91152 7.91201 0 17.6714 0C27.4307 0 35.3422 7.91152 35.3422 17.6709ZM26.0693 13.3639C26.9235 13.2624 27.7381 13.0353 28.4954 12.6995C27.9293 13.5466 27.2133 14.2903 26.3874 14.8856C26.3956 15.0665 26.3997 15.2488 26.3997 15.4318C26.3997 21.014 22.151 27.45 14.3818 27.45C11.9966 27.45 9.77588 26.7511 7.90762 25.5522C8.23742 25.5915 8.57447 25.6114 8.91467 25.6114C10.8941 25.6114 12.7151 24.9363 14.161 23.8033C12.3123 23.769 10.7527 22.5477 10.2153 20.87C10.473 20.9191 10.7373 20.9453 11.0101 20.9453C11.3947 20.9453 11.7686 20.8939 12.1226 20.7969C10.1907 20.4092 8.73418 18.7022 8.73418 16.6556C8.73418 16.638 8.73418 16.62 8.73449 16.6021C9.3037 16.9193 9.95543 17.1092 10.6475 17.131C9.51475 16.3737 8.76851 15.0803 8.76851 13.6152C8.76851 12.8413 8.97704 12.1152 9.34055 11.4915C11.424 14.0477 14.5365 15.7292 18.0468 15.9053C17.9744 15.596 17.9369 15.2737 17.9369 14.9427C17.9369 12.6104 19.8285 10.7188 22.1607 10.7188C23.3763 10.7188 24.4741 11.2316 25.2446 12.0522C26.2063 11.8629 27.1106 11.5117 27.9268 11.0275C27.6109 12.0144 26.9415 12.8413 26.0693 13.3639Z" fill="#3E2620"/>
</svg>
