<svg width="36" height="36" viewBox="0 0 36 36" fill="none" xmlns="http://www.w3.org/2000/svg">
<path fill-rule="evenodd" clip-rule="evenodd" d="M35.3417 17.6704C35.3417 27.4297 27.4302 35.3413 17.6709 35.3413C7.91152 35.3413 0 27.4297 0 17.6704C0 7.91103 7.91152 -0.000488281 17.6709 -0.000488281C27.4302 -0.000488281 35.3417 7.91103 35.3417 17.6704ZM8.52642 9.74467C8.52642 8.49853 9.47174 7.55006 10.9166 7.55006C12.3619 7.55006 13.2498 8.49853 13.2779 9.74467C13.2779 10.9643 12.3619 11.9402 10.8886 11.9402H10.8612C9.44433 11.9402 8.52642 10.9643 8.52642 9.74467ZM28.229 26.3776V19.0923C28.229 15.191 26.1456 13.3754 23.3667 13.3754C21.1223 13.3754 20.1213 14.6102 19.5599 15.4739V13.6737H15.3355C15.3922 14.8653 15.3355 26.3773 15.3355 26.3773H19.5596V19.2822C19.5596 18.9014 19.5883 18.5243 19.6995 18.2528C20.0056 17.493 20.699 16.7084 21.866 16.7084C23.3954 16.7084 24.0052 17.8739 24.0052 19.5805V26.3776H28.229ZM19.5599 15.4739V15.5155H19.5319C19.5359 15.5083 19.5412 15.501 19.5465 15.4936C19.5512 15.4871 19.5559 15.4805 19.5599 15.4739ZM8.77747 26.3776H13V13.6737H8.77747V26.3776Z" fill="#3E2620"/>
</svg>
