<svg width="36" height="36" viewBox="0 0 36 36" fill="none" xmlns="http://www.w3.org/2000/svg">
<path d="M18 0C8.06899 0 0 8.05513 0 17.9691C0 25.3426 4.40691 31.6628 10.8 34.4511C10.7379 33.2118 10.8 31.6628 11.1104 30.2996C11.4828 28.8125 13.4069 20.5095 13.4069 20.5095C13.4069 20.5095 12.8483 19.3323 12.8483 17.6593C12.8483 14.9948 14.4 13.0121 16.3241 13.0121C17.9379 13.0121 18.7448 14.2513 18.7448 15.7384C18.7448 17.3494 17.6896 19.8279 17.131 22.1205C16.6965 24.0414 18.062 25.5904 19.9862 25.5904C23.4 25.5904 25.6965 21.191 25.6965 16.0481C25.6965 12.0825 23.0276 9.17034 18.1862 9.17034C12.7241 9.17034 9.31036 13.2598 9.31036 17.7831C9.31036 19.3321 9.74482 20.4475 10.4896 21.3149C10.8 21.6867 10.8621 21.8726 10.7379 22.3063C10.6758 22.6161 10.4276 23.4216 10.3655 23.7314C10.2413 24.1651 9.86892 24.3511 9.43446 24.1651C6.88964 23.1117 5.77238 20.3854 5.77238 17.2873C5.77238 12.2064 10.0551 6.07215 18.6206 6.07215C25.5103 6.07215 30.0414 11.0292 30.0414 16.3579C30.0414 23.4216 26.131 28.6884 20.3586 28.6884C18.4345 28.6884 16.5724 27.635 15.9517 26.4578C15.9517 26.4578 14.8965 30.6093 14.7104 31.4148C14.3379 32.778 13.5931 34.2031 12.9104 35.2565C14.5242 35.7522 16.2621 36 18 36C27.931 36 36 27.9449 36 18.0309C36 8.11697 27.9311 0 18 0Z" fill="#3E2620"/>
</svg>
