<svg width="29" height="36" viewBox="0 0 29 36" fill="none" xmlns="http://www.w3.org/2000/svg">
<path d="M24.8276 36H3.72414C2.73644 36 1.78919 35.6076 1.09077 34.9092C0.392363 34.2108 0 33.2636 0 32.2759V3.72414C0 2.73644 0.392363 1.78919 1.09077 1.09077C1.78919 0.392363 2.73644 0 3.72414 0H21.1034L28.5517 7.44828V32.2759C28.5517 33.2636 28.1594 34.2108 27.461 34.9092C26.7625 35.6076 25.8153 36 24.8276 36Z" fill="#CFE9FC"/>
<path d="M0 26.0688H28.5517V32.2757C28.5517 33.2634 28.1594 34.2107 27.461 34.9091C26.7625 35.6075 25.8153 35.9999 24.8276 35.9999H3.72414C2.73644 35.9999 1.78919 35.6075 1.09077 34.9091C0.392364 34.2107 0 33.2634 0 32.2757V26.0688Z" fill="#00B2FF"/>
<path d="M28.5518 7.44828H24.8277C23.84 7.44828 22.8927 7.05591 22.1943 6.3575C21.4959 5.65909 21.1035 4.71184 21.1035 3.72414V0L28.5518 7.44828Z" fill="#00B2FF"/>
<path d="M23.5866 14.2759H4.9659C4.80129 14.2759 4.64341 14.2105 4.52701 14.0941C4.41061 13.9777 4.34521 13.8199 4.34521 13.6552C4.34521 13.4906 4.41061 13.3327 4.52701 13.2163C4.64341 13.0999 4.80129 13.0345 4.9659 13.0345H23.5866C23.7512 13.0345 23.9091 13.0999 24.0255 13.2163C24.1419 13.3327 24.2073 13.4906 24.2073 13.6552C24.2073 13.8199 24.1419 13.9777 24.0255 14.0941C23.9091 14.2105 23.7512 14.2759 23.5866 14.2759Z" fill="#00B2FF"/>
<path d="M23.5866 16.7587H4.9659C4.80129 16.7587 4.64341 16.6933 4.52701 16.5769C4.41061 16.4605 4.34521 16.3026 4.34521 16.138C4.34521 15.9734 4.41061 15.8155 4.52701 15.6991C4.64341 15.5827 4.80129 15.5173 4.9659 15.5173H23.5866C23.7512 15.5173 23.9091 15.5827 24.0255 15.6991C24.1419 15.8155 24.2073 15.9734 24.2073 16.138C24.2073 16.3026 24.1419 16.4605 24.0255 16.5769C23.9091 16.6933 23.7512 16.7587 23.5866 16.7587Z" fill="#00B2FF"/>
<path d="M23.5866 19.2414H4.9659C4.80129 19.2414 4.64341 19.176 4.52701 19.0596C4.41061 18.9432 4.34521 18.7853 4.34521 18.6207C4.34521 18.4561 4.41061 18.2982 4.52701 18.1818C4.64341 18.0654 4.80129 18 4.9659 18H23.5866C23.7512 18 23.9091 18.0654 24.0255 18.1818C24.1419 18.2982 24.2073 18.4561 24.2073 18.6207C24.2073 18.7853 24.1419 18.9432 24.0255 19.0596C23.9091 19.176 23.7512 19.2414 23.5866 19.2414Z" fill="#00B2FF"/>
<path d="M23.5866 11.793H4.9659C4.80129 11.793 4.64341 11.7276 4.52701 11.6112C4.41061 11.4948 4.34521 11.3369 4.34521 11.1723C4.34521 11.0077 4.41061 10.8498 4.52701 10.7334C4.64341 10.617 4.80129 10.5516 4.9659 10.5516H23.5866C23.7512 10.5516 23.9091 10.617 24.0255 10.7334C24.1419 10.8498 24.2073 11.0077 24.2073 11.1723C24.2073 11.3369 24.1419 11.4948 24.0255 11.6112C23.9091 11.7276 23.7512 11.793 23.5866 11.793Z" fill="#00B2FF"/>
<path d="M19.8625 21.7242H4.9659C4.80129 21.7242 4.64341 21.6588 4.52701 21.5424C4.41061 21.426 4.34521 21.2681 4.34521 21.1035C4.34521 20.9389 4.41061 20.781 4.52701 20.6646C4.64341 20.5482 4.80129 20.4828 4.9659 20.4828H19.8625C20.0271 20.4828 20.1849 20.5482 20.3014 20.6646C20.4178 20.781 20.4831 20.9389 20.4831 21.1035C20.4831 21.2681 20.4178 21.426 20.3014 21.5424C20.1849 21.6588 20.0271 21.7242 19.8625 21.7242Z" fill="#00B2FF"/>
<path d="M10.5521 9.31035H4.9659C4.80129 9.31035 4.64341 9.24496 4.52701 9.12855C4.41061 9.01215 4.34521 8.85428 4.34521 8.68966C4.34521 8.52504 4.41061 8.36717 4.52701 8.25077C4.64341 8.13436 4.80129 8.06897 4.9659 8.06897H10.5521C10.7167 8.06897 10.8746 8.13436 10.991 8.25077C11.1074 8.36717 11.1728 8.52504 11.1728 8.68966C11.1728 8.85428 11.1074 9.01215 10.991 9.12855C10.8746 9.24496 10.7167 9.31035 10.5521 9.31035Z" fill="#00B2FF"/>
<path d="M10.5517 27.931H8.06893C7.90431 27.931 7.74644 27.9964 7.63004 28.1128C7.51364 28.2292 7.44824 28.3871 7.44824 28.5517C7.44824 28.7163 7.51364 28.8742 7.63004 28.9906C7.74644 29.107 7.90431 29.1724 8.06893 29.1724H8.68962V33.5172C8.68962 33.6819 8.75502 33.8397 8.87142 33.9561C8.98782 34.0725 9.14569 34.1379 9.31031 34.1379C9.47493 34.1379 9.6328 34.0725 9.74921 33.9561C9.86561 33.8397 9.931 33.6819 9.931 33.5172V29.1724H10.5517C10.7163 29.1724 10.8742 29.107 10.9906 28.9906C11.107 28.8742 11.1724 28.7163 11.1724 28.5517C11.1724 28.3871 11.107 28.2292 10.9906 28.1128C10.8742 27.9964 10.7163 27.931 10.5517 27.931Z" fill="white"/>
<path d="M20.4828 27.931H18.0001C17.8355 27.931 17.6776 27.9964 17.5612 28.1128C17.4448 28.2292 17.3794 28.3871 17.3794 28.5517C17.3794 28.7163 17.4448 28.8742 17.5612 28.9906C17.6776 29.107 17.8355 29.1724 18.0001 29.1724H18.6208V33.5172C18.6208 33.6819 18.6862 33.8397 18.8026 33.9561C18.919 34.0725 19.0768 34.1379 19.2415 34.1379C19.4061 34.1379 19.564 34.0725 19.6804 33.9561C19.7968 33.8397 19.8622 33.6819 19.8622 33.5172V29.1724H20.4828C20.6475 29.1724 20.8053 29.107 20.9217 28.9906C21.0381 28.8742 21.1035 28.7163 21.1035 28.5517C21.1035 28.3871 21.0381 28.2292 20.9217 28.1128C20.8053 27.9964 20.6475 27.931 20.4828 27.931Z" fill="white"/>
<path d="M15.7948 27.9966C15.6476 27.9229 15.4772 27.9108 15.321 27.9629C15.1648 28.0149 15.0357 28.1269 14.9621 28.2741L14.2759 29.6466L13.5896 28.2741C13.5152 28.1282 13.3862 28.0176 13.2306 27.9664C13.075 27.9152 12.9055 27.9276 12.759 28.0009C12.6125 28.0741 12.5009 28.2023 12.4486 28.3575C12.3962 28.5127 12.4072 28.6822 12.4793 28.8293L13.5819 31.0345L12.4793 33.2396C12.4421 33.3126 12.4197 33.3922 12.4135 33.4739C12.4072 33.5556 12.4171 33.6377 12.4427 33.7155C12.4683 33.7933 12.509 33.8653 12.5626 33.9273C12.6161 33.9893 12.6814 34.04 12.7547 34.0767C12.828 34.1133 12.9078 34.1351 12.9895 34.1408C13.0712 34.1464 13.1532 34.1358 13.2309 34.1096C13.3085 34.0834 13.3801 34.0421 13.4417 33.9881C13.5033 33.9341 13.5535 33.8684 13.5896 33.7948L14.2759 32.4223L14.9621 33.7948C14.9982 33.8684 15.0484 33.9341 15.11 33.9881C15.1716 34.0421 15.2432 34.0834 15.3209 34.1096C15.3985 34.1358 15.4805 34.1464 15.5622 34.1408C15.6439 34.1351 15.7237 34.1133 15.797 34.0767C15.8703 34.04 15.9356 33.9893 15.9891 33.9273C16.0427 33.8653 16.0834 33.7933 16.109 33.7155C16.1346 33.6377 16.1445 33.5556 16.1383 33.4739C16.132 33.3922 16.1096 33.3126 16.0724 33.2396L14.9698 31.0345L16.0724 28.8293C16.146 28.6821 16.1581 28.5116 16.1061 28.3555C16.054 28.1993 15.9421 28.0702 15.7948 27.9966Z" fill="white"/>
</svg>
