<svg width="29" height="30" viewBox="0 0 29 30" fill="none" xmlns="http://www.w3.org/2000/svg">
<path fill-rule="evenodd" clip-rule="evenodd" d="M28.5408 14.8921C28.5408 23.1168 22.1517 29.7842 14.2704 29.7842C6.38907 29.7842 0 23.1168 0 14.8921C0 6.66742 6.38907 0 14.2704 0C22.1517 0 28.5408 6.66742 28.5408 14.8921ZM14.8515 21.4239H13.7315C13.7315 21.4239 11.2601 21.5792 9.08389 19.2147C6.71049 16.6356 4.61437 11.5179 4.61437 11.5179C4.61437 11.5179 4.49353 11.1823 4.6248 11.0201C4.77234 10.8378 5.17426 10.8261 5.17426 10.8261L7.85165 10.8078C7.85165 10.8078 8.104 10.8518 8.28461 10.9901C8.43343 11.1043 8.51686 11.3177 8.51686 11.3177C8.51686 11.3177 8.94957 12.4598 9.5227 13.493C10.6412 15.51 11.1622 15.9513 11.542 15.7352C12.0953 15.42 11.9294 12.8837 11.9294 12.8837C11.9294 12.8837 11.9396 11.9631 11.6509 11.5532C11.4273 11.2354 11.0055 11.1428 10.8193 11.1168C10.6687 11.0958 10.916 10.7308 11.2365 10.567C11.7183 10.3206 12.5692 10.3066 13.5745 10.3174C14.3578 10.3257 14.5831 10.3766 14.8894 10.4539C15.6 10.6329 15.5778 11.2067 15.53 12.4446C15.5158 12.8145 15.4992 13.2437 15.4992 13.7394C15.4992 13.8509 15.4961 13.9698 15.4929 14.092C15.4763 14.726 15.4573 15.4519 15.8571 15.7216C16.0621 15.8597 16.5638 15.7423 17.8184 13.519C18.4131 12.4654 18.8591 11.2264 18.8591 11.2264C18.8591 11.2264 18.9565 11.0055 19.1079 10.9108C19.2628 10.8141 19.4716 10.8439 19.4716 10.8439L22.2892 10.8256C22.2892 10.8256 23.1358 10.7202 23.2729 11.1189C23.4166 11.5375 22.9564 12.515 21.8054 14.1161C20.7097 15.64 20.1786 16.198 20.2313 16.6938C20.2695 17.0533 20.6147 17.3802 21.2742 18.019C22.6611 19.3624 23.0307 20.0678 23.1186 20.2355C23.1257 20.2491 23.131 20.2591 23.1348 20.2657C23.7555 21.3398 22.4464 21.4239 22.4464 21.4239L19.944 21.4603C19.944 21.4603 19.4063 21.5715 18.6986 21.0642C18.3285 20.7991 17.9666 20.3662 17.6219 19.9538C17.0949 19.3233 16.6078 18.7405 16.1921 18.8781C15.4946 19.109 15.5165 20.6774 15.5165 20.6774C15.5165 20.6774 15.5216 21.0124 15.3626 21.1908C15.1899 21.3852 14.8515 21.4239 14.8515 21.4239Z" fill="white"/>
</svg>
