<svg width="35" height="25" viewBox="0 0 35 25" fill="none" xmlns="http://www.w3.org/2000/svg">
<path fill-rule="evenodd" clip-rule="evenodd" d="M30.4981 1.05834C31.934 1.46193 33.0663 2.64334 33.4528 4.14213C34.171 6.87972 34.1434 12.586 34.1434 12.586C34.1434 12.586 34.1434 18.2633 33.4531 21.0011C33.0663 22.4997 31.9343 23.6813 30.4981 24.0847C27.8746 24.8054 17.3809 24.8054 17.3809 24.8054C17.3809 24.8054 6.91458 24.8054 4.26372 24.0561C2.82754 23.6525 1.69548 22.4708 1.30875 20.9723C0.618408 18.2633 0.618408 12.5572 0.618408 12.5572C0.618408 12.5572 0.618408 6.87972 1.30875 4.14213C1.69522 2.64361 2.85517 1.4331 4.26347 1.02978C6.88696 0.309082 17.3807 0.309082 17.3807 0.309082C17.3807 0.309082 27.8746 0.309082 30.4981 1.05834ZM22.7658 12.5571L14.0395 17.8025V7.31181L22.7658 12.5571Z" fill="white"/>
</svg>
